<?xml version="1.0" standalone="no"?>
<!DOCTYPE svg PUBLIC "-//W3C//DTD SVG 20010904//EN"
 "http://www.w3.org/TR/2001/REC-SVG-20010904/DTD/svg10.dtd">
<svg version="1.0" xmlns="http://www.w3.org/2000/svg"
 width="4039.000000pt" height="1878.000000pt" viewBox="0 0 4039.000000 1878.000000"
 preserveAspectRatio="xMidYMid meet">

<g transform="translate(0.000000,1878.000000) scale(0.100000,-0.100000)"
fill="#A17A32" stroke="none">
<path d="M38885 18416 c-76 -21 -180 -68 -235 -105 -14 -10 -33 -21 -42 -24
-10 -4 -18 -11 -18 -17 0 -6 -4 -9 -9 -6 -12 8 -208 -182 -292 -282 -74 -86
-233 -317 -288 -418 -83 -148 -201 -392 -201 -414 0 -9 -6 -24 -13 -35 -8 -11
-24 -54 -36 -95 -12 -41 -26 -84 -31 -95 -10 -22 -36 -115 -51 -185 -6 -25
-14 -54 -19 -65 -11 -27 -41 -175 -59 -295 -5 -31 -11 -65 -14 -75 -13 -45
-29 -271 -31 -437 -1 -119 -6 -182 -14 -190 -8 -8 -22 -7 -58 7 -60 23 -152
16 -214 -15 -108 -55 -304 -239 -594 -561 -104 -116 -330 -341 -373 -372 -17
-12 -71 -58 -120 -102 -141 -126 -627 -495 -652 -495 -6 0 -11 -4 -11 -10 0
-5 -7 -10 -15 -10 -8 0 -15 -4 -15 -10 0 -5 -7 -10 -15 -10 -8 0 -15 -4 -15
-10 0 -5 -5 -10 -11 -10 -6 0 -48 -22 -95 -50 -135 -80 -194 -99 -194 -62 0
10 6 26 13 37 7 11 21 43 31 70 10 28 24 59 31 70 6 11 20 45 30 75 10 30 21
60 25 65 26 34 45 279 28 361 -11 55 -74 164 -129 221 -42 44 -175 143 -193
143 -13 0 -283 155 -293 168 -15 20 -17 72 -3 72 6 0 10 5 10 11 0 5 29 70 65
144 36 74 83 174 106 222 22 48 56 120 74 158 40 87 72 155 120 265 21 47 50
113 66 146 16 34 29 66 29 70 0 5 7 23 16 39 19 36 64 141 105 245 16 41 40
98 53 125 13 28 27 61 31 75 4 14 11 30 16 36 5 6 18 37 29 69 11 32 24 63 29
69 4 6 14 36 21 66 7 30 16 60 20 65 13 17 18 145 8 183 -33 129 -115 196
-238 197 -54 0 -77 -6 -140 -36 -90 -43 -214 -152 -297 -260 -32 -41 -61 -75
-64 -77 -4 -2 -27 -33 -51 -70 -23 -37 -46 -68 -50 -70 -5 -2 -8 -10 -8 -17 0
-7 -3 -15 -8 -17 -4 -1 -23 -28 -42 -58 -19 -30 -37 -57 -41 -60 -3 -3 -14
-21 -24 -40 -9 -19 -25 -43 -34 -53 -16 -19 -149 -264 -177 -327 -8 -19 -28
-62 -44 -95 -15 -33 -40 -96 -56 -140 -15 -44 -31 -84 -34 -90 -4 -5 -11 -26
-15 -45 -4 -19 -12 -46 -18 -60 -5 -14 -11 -29 -13 -35 -1 -5 -10 -41 -19 -80
-30 -118 -38 -184 -39 -325 -1 -148 7 -221 29 -273 18 -43 11 -114 -13 -147
-11 -14 -29 -47 -40 -74 -23 -50 -46 -90 -120 -204 -24 -37 -58 -94 -74 -127
-17 -33 -35 -62 -40 -63 -5 -2 -19 -25 -32 -50 -13 -26 -65 -110 -115 -187
-129 -197 -137 -210 -154 -227 -8 -8 -29 -38 -47 -66 -17 -29 -37 -55 -44 -59
-6 -5 -30 -33 -51 -64 -127 -181 -399 -437 -522 -493 -63 -28 -72 -20 -61 54
4 35 14 81 22 104 7 22 17 57 20 76 4 19 11 44 16 55 5 11 18 54 30 95 11 41
28 100 36 130 9 30 19 60 23 65 4 6 13 30 20 55 7 25 19 59 26 75 14 33 88
269 111 355 8 30 19 62 24 72 5 9 12 40 16 70 4 29 11 58 16 65 19 24 6 135
-24 198 -39 83 -82 111 -178 114 -60 2 -78 -2 -121 -25 -54 -30 -114 -95 -147
-160 -22 -43 -120 -196 -132 -204 -4 -3 -31 -39 -61 -80 -29 -41 -58 -79 -65
-85 -6 -5 -28 -32 -50 -60 -21 -27 -42 -52 -46 -55 -3 -3 -26 -30 -50 -61
-128 -164 -361 -421 -573 -633 -185 -185 -472 -446 -491 -446 -24 0 -16 35 21
88 73 106 165 317 187 427 6 28 14 58 19 67 11 22 14 180 5 238 -40 244 -211
393 -451 393 -44 0 -109 -8 -145 -17 -63 -16 -292 -122 -298 -138 -2 -4 -10
-8 -18 -8 -8 0 -14 -4 -14 -10 0 -5 -7 -10 -15 -10 -9 0 -18 -7 -21 -15 -4 -8
-11 -15 -16 -15 -12 0 -151 -109 -156 -122 -2 -5 -8 -6 -13 -2 -5 3 -9 0 -9
-7 0 -9 -3 -10 -10 -3 -12 12 33 168 50 179 6 4 8 10 5 15 -3 5 -1 17 5 27 5
10 35 83 65 163 30 80 64 168 74 195 70 179 91 235 91 242 0 5 7 21 15 36 8
16 21 51 29 78 8 26 21 63 29 81 9 18 25 62 37 98 12 36 25 70 30 75 4 6 15
37 25 70 9 33 21 65 25 70 4 6 15 33 24 60 24 77 82 240 90 254 4 6 16 40 26
75 9 34 22 71 28 82 6 10 23 55 37 99 22 71 82 246 98 285 3 8 24 71 47 140
23 69 46 134 52 144 5 11 18 47 28 80 10 34 46 140 80 236 34 96 66 191 72
210 5 19 30 95 54 167 24 73 44 138 44 144 0 6 6 25 14 42 15 34 52 154 86
278 11 42 21 109 23 150 1 62 -2 80 -20 110 -47 75 -159 91 -230 33 -44 -37
-87 -118 -138 -259 -10 -27 -22 -54 -25 -60 -4 -5 -10 -22 -14 -38 -4 -15 -17
-51 -30 -80 -13 -28 -29 -70 -36 -92 -7 -22 -23 -62 -35 -90 -12 -27 -28 -68
-35 -90 -7 -22 -16 -44 -20 -50 -4 -5 -18 -41 -30 -80 -12 -38 -26 -74 -30
-80 -5 -5 -16 -37 -25 -70 -10 -33 -23 -71 -31 -85 -7 -14 -27 -70 -45 -125
-17 -55 -35 -104 -39 -110 -5 -5 -15 -34 -24 -64 -9 -29 -20 -59 -25 -65 -5
-6 -16 -38 -26 -71 -9 -33 -23 -73 -30 -90 -8 -16 -25 -61 -39 -100 -14 -38
-37 -101 -52 -140 -14 -38 -37 -101 -50 -140 -13 -38 -28 -79 -34 -90 -5 -11
-19 -45 -29 -75 -11 -30 -34 -93 -52 -140 -18 -47 -43 -116 -56 -154 -13 -38
-27 -74 -31 -80 -5 -6 -19 -42 -32 -81 -12 -38 -26 -74 -30 -80 -4 -5 -15 -35
-25 -65 -10 -30 -24 -68 -31 -85 -7 -16 -31 -79 -53 -140 -78 -216 -95 -260
-104 -266 -5 -3 -8 -9 -8 -13 0 -3 -1 -11 -4 -18 -2 -7 -9 -31 -16 -53 -6 -22
-22 -62 -34 -90 -12 -27 -31 -72 -41 -100 -10 -27 -23 -59 -30 -70 -6 -11 -17
-38 -24 -60 -7 -22 -25 -67 -40 -100 -15 -33 -33 -78 -40 -100 -7 -22 -17 -45
-21 -51 -5 -6 -20 -44 -34 -84 -14 -40 -29 -78 -34 -84 -4 -6 -16 -36 -26 -66
-10 -30 -33 -87 -52 -126 -18 -40 -33 -75 -33 -80 0 -4 -9 -26 -19 -48 -41
-90 -94 -214 -113 -271 -11 -33 -26 -67 -32 -75 -7 -8 -27 -55 -46 -105 -34
-94 -78 -185 -173 -367 -32 -60 -57 -117 -57 -127 0 -11 -5 -23 -11 -27 -15
-9 -5 -107 15 -154 18 -44 50 -73 104 -93 53 -21 103 -21 171 -1 29 8 56 13
59 10 3 -4 -5 -31 -17 -62 -39 -93 -19 -189 53 -252 64 -56 166 -71 356 -52
130 12 297 50 412 94 83 31 318 148 423 210 42 26 79 46 82 46 14 0 297 198
448 314 236 181 632 560 970 929 54 59 102 107 108 107 10 0 5 -45 -17 -145
-48 -210 -51 -324 -12 -448 57 -180 241 -275 451 -232 75 15 305 116 313 137
2 4 10 8 17 8 7 0 15 3 17 8 2 4 15 14 30 22 123 69 368 304 532 510 38 47 76
94 86 106 24 29 99 137 137 197 17 27 36 53 40 56 5 3 27 35 48 71 21 36 45
73 53 82 8 10 31 44 51 78 50 83 181 304 255 430 35 59 70 106 79 108 18 4
319 -144 325 -159 2 -5 8 -9 14 -9 5 0 25 -16 44 -36 24 -27 34 -46 34 -69 0
-38 -36 -159 -56 -190 -7 -12 -22 -46 -33 -76 -10 -29 -25 -67 -32 -84 -7 -16
-13 -32 -14 -35 -1 -3 -7 -18 -13 -33 -7 -16 -15 -46 -18 -68 -4 -21 -10 -39
-14 -39 -4 0 -8 -30 -9 -67 -1 -37 -4 -70 -7 -74 -6 -11 21 -120 41 -163 28
-59 116 -130 191 -155 69 -23 199 -28 264 -11 114 29 293 111 425 196 50 31
99 62 110 68 53 30 119 76 213 148 57 43 105 78 108 78 4 0 58 43 121 95 64
52 122 95 129 95 14 0 44 -49 44 -73 0 -8 13 -43 29 -78 53 -117 160 -205 311
-255 76 -25 279 -26 350 -1 8 2 51 15 95 27 238 66 520 245 785 498 60 57 94
82 111 82 18 0 42 -19 88 -72 35 -40 80 -85 100 -101 20 -16 38 -33 41 -37 3
-5 17 -14 30 -20 14 -6 52 -28 85 -50 73 -47 157 -88 198 -95 16 -3 45 -12 64
-20 48 -20 200 -48 235 -43 16 3 31 2 33 -2 5 -7 219 13 302 30 136 26 327
108 488 208 84 52 295 217 295 231 0 3 25 32 55 64 30 32 69 79 87 105 17 26
34 49 38 52 33 28 210 373 210 411 0 8 7 27 15 43 24 46 39 160 24 188 -47 91
-137 104 -214 29 -30 -29 -51 -65 -84 -149 -24 -61 -47 -113 -50 -114 -4 -2
-24 -33 -46 -70 -22 -38 -43 -68 -47 -68 -4 0 -8 -5 -8 -10 0 -25 -141 -166
-245 -245 -120 -91 -281 -168 -410 -195 -33 -8 -64 -17 -70 -21 -5 -4 -46 -12
-90 -19 -187 -29 -399 20 -547 125 -68 47 -209 187 -223 220 -16 39 1 92 43
134 7 8 24 30 38 50 13 20 37 54 53 76 16 22 44 65 62 95 17 30 35 57 38 60 6
4 26 38 106 185 12 22 53 96 91 165 91 163 192 372 236 485 10 27 28 69 38 92
11 24 20 46 20 49 0 4 8 25 19 48 18 40 64 159 103 266 11 30 26 69 34 86 7
18 16 49 20 70 4 20 13 49 20 63 8 14 14 34 14 44 0 11 6 33 14 50 16 36 30
86 55 197 10 41 20 82 24 90 7 18 26 118 34 175 3 22 9 44 14 50 5 5 9 28 9
52 0 24 4 51 9 61 15 27 40 367 36 472 -6 115 -31 252 -56 302 -11 21 -19 42
-19 48 0 25 -84 133 -133 169 -106 80 -224 98 -372 57z m90 -453 c43 -42 56
-175 41 -396 -4 -59 -12 -110 -17 -113 -5 -3 -9 -29 -9 -59 0 -30 -4 -57 -10
-60 -5 -3 -10 -26 -10 -51 0 -24 -4 -44 -10 -44 -5 0 -10 -15 -10 -34 0 -18
-6 -56 -14 -82 -14 -45 -31 -113 -57 -219 -5 -22 -12 -47 -16 -55 -8 -20 -11
-28 -23 -80 -6 -24 -15 -49 -19 -55 -4 -5 -14 -32 -21 -60 -8 -27 -19 -59 -26
-70 -7 -11 -15 -36 -19 -55 -4 -19 -16 -51 -26 -70 -11 -19 -19 -42 -19 -50 0
-9 -6 -24 -14 -35 -7 -11 -19 -38 -26 -60 -7 -22 -18 -49 -25 -60 -6 -11 -22
-47 -34 -80 -12 -33 -26 -64 -30 -70 -5 -5 -16 -32 -27 -60 -10 -27 -21 -52
-25 -55 -4 -3 -9 -12 -11 -19 -11 -48 -252 -490 -326 -599 -11 -15 -31 -46
-46 -69 -39 -64 -58 -57 -76 27 -48 216 -62 360 -61 600 2 264 20 409 93 720
7 30 16 60 20 65 3 6 9 28 13 50 4 22 13 54 21 70 7 17 17 46 23 65 33 119
134 344 212 475 51 87 149 234 169 255 8 9 37 45 64 80 86 112 274 270 323
270 6 0 19 -7 28 -17z m-1387 -2650 c6 -16 10 -35 10 -43 0 -8 10 -51 22 -95
12 -44 24 -93 26 -108 2 -15 8 -36 13 -46 6 -10 12 -29 15 -42 2 -13 18 -59
35 -102 35 -93 33 -101 -36 -177 -60 -66 -268 -250 -311 -276 -18 -10 -32 -22
-32 -26 0 -4 -7 -8 -15 -8 -8 0 -15 -4 -15 -10 0 -5 -6 -10 -14 -10 -8 0 -16
-3 -18 -7 -9 -21 -178 -106 -262 -132 -82 -25 -187 -28 -210 -6 -21 22 -40 93
-28 108 5 7 12 31 16 54 6 45 71 174 115 233 15 19 39 53 54 75 41 60 122 163
180 229 91 104 416 416 433 416 6 0 16 -12 22 -27z m-6592 -1338 c21 -32 30
-109 16 -138 -6 -12 -13 -37 -16 -56 -4 -19 -20 -63 -36 -98 -17 -35 -30 -67
-30 -72 0 -14 -178 -280 -200 -299 -11 -9 -20 -19 -20 -23 0 -18 -332 -355
-364 -369 -6 -3 -57 -42 -114 -87 -95 -77 -268 -195 -372 -256 -62 -36 -251
-100 -262 -89 -12 12 96 198 211 364 57 81 144 202 151 208 3 3 23 30 45 60
21 30 44 60 50 65 6 6 35 44 65 85 29 41 58 80 65 85 6 6 42 48 79 95 83 103
325 341 421 415 85 66 218 134 262 134 24 1 37 -6 49 -24z"/>
<path d="M9402 16949 c-106 -20 -145 -72 -308 -407 -63 -128 -114 -235 -114
-238 0 -2 -29 -65 -65 -140 -36 -75 -65 -138 -65 -140 0 -2 -23 -50 -51 -106
-28 -57 -79 -166 -114 -243 -79 -175 -169 -369 -274 -593 -44 -95 -81 -175
-81 -177 0 -3 -27 -59 -59 -125 -33 -66 -60 -123 -60 -125 0 -3 -7 -18 -15
-33 -7 -15 -43 -95 -79 -179 -37 -84 -71 -160 -76 -170 -14 -24 -111 -234
-111 -239 0 -2 -19 -46 -43 -96 -24 -51 -70 -156 -102 -233 -32 -77 -67 -152
-77 -167 -11 -16 -17 -28 -13 -28 3 0 -2 -11 -11 -25 -9 -14 -13 -25 -9 -25 4
0 3 -6 -3 -13 -11 -13 -47 -95 -164 -377 -33 -80 -72 -170 -86 -200 -15 -30
-27 -57 -28 -60 0 -3 -6 -16 -12 -30 -21 -45 -102 -243 -160 -390 -31 -80 -60
-148 -65 -151 -4 -3 -9 -12 -11 -20 -1 -8 -7 -23 -13 -34 -6 -11 -11 -22 -11
-25 0 -5 -8 -24 -42 -105 -12 -27 -51 -126 -86 -220 -36 -93 -73 -188 -83
-210 -10 -22 -37 -93 -61 -157 -51 -140 -61 -148 -188 -148 -45 0 -84 -4 -87
-10 -3 -5 -30 -10 -58 -10 -84 0 -500 -48 -605 -69 -53 -11 -171 -31 -262 -46
-255 -40 -848 -163 -895 -185 -11 -5 -101 -30 -200 -56 -287 -73 -468 -124
-502 -139 -17 -8 -35 -15 -40 -15 -4 0 -116 -34 -248 -75 -132 -41 -245 -75
-251 -75 -28 0 -20 39 30 148 30 64 72 158 94 207 22 50 76 164 120 255 44 91
100 208 125 260 234 497 613 1264 763 1545 47 88 121 228 164 310 42 83 103
197 135 255 32 58 89 164 128 235 39 72 73 132 77 135 3 3 28 46 55 95 93 173
229 410 237 413 4 2 8 10 8 18 0 8 5 14 11 14 5 0 7 5 4 10 -3 6 -1 10 5 10 6
0 9 4 6 9 -3 5 1 12 10 15 8 3 12 10 9 16 -3 5 -2 10 2 10 5 0 17 15 27 33 11
17 57 90 103 160 47 71 91 144 99 163 20 49 17 105 -9 155 -19 36 -33 47 -73
62 -103 39 -201 17 -290 -65 -55 -51 -170 -193 -240 -298 -52 -77 -242 -393
-308 -512 -20 -36 -61 -106 -91 -155 -65 -106 -166 -287 -266 -478 -40 -77
-75 -142 -78 -145 -3 -3 -16 -25 -29 -50 -12 -25 -31 -58 -41 -75 -78 -129
-803 -1562 -816 -1615 -1 -3 -36 -75 -77 -160 -82 -165 -186 -388 -300 -640
-39 -85 -75 -158 -80 -161 -5 -3 -11 -12 -12 -20 -2 -8 -13 -36 -26 -64 -13
-27 -49 -108 -80 -180 -68 -155 -74 -160 -255 -224 -198 -70 -369 -134 -380
-142 -5 -4 -46 -21 -90 -39 -44 -17 -105 -42 -135 -55 -30 -13 -98 -40 -150
-61 -52 -20 -99 -40 -105 -44 -5 -4 -116 -54 -245 -110 -284 -125 -704 -335
-895 -448 -168 -99 -179 -106 -185 -112 -3 -3 -16 -11 -30 -19 -112 -62 -327
-233 -370 -294 -16 -23 -35 -48 -41 -55 -40 -48 -32 -133 19 -192 71 -83 148
-92 269 -30 43 22 92 52 107 65 16 14 35 25 43 25 7 0 13 4 13 9 0 5 10 13 23
17 12 4 24 10 27 13 3 4 30 20 60 35 30 16 78 43 105 61 79 52 407 225 417
219 4 -3 8 0 8 6 0 6 4 8 10 5 5 -3 10 -1 10 5 0 6 4 9 9 6 5 -4 11 -2 13 3 8
25 742 349 1158 513 41 16 80 34 87 40 7 6 13 7 13 4 0 -4 10 -1 22 6 13 7 26
13 31 14 4 1 9 3 12 4 3 1 9 3 14 4 5 0 12 4 16 7 12 13 45 -4 45 -23 0 -10
-9 -38 -21 -61 -11 -23 -45 -103 -76 -177 -30 -74 -64 -155 -76 -180 -23 -52
-121 -288 -179 -434 -21 -55 -48 -118 -58 -141 -40 -88 -272 -706 -351 -935
-117 -340 -124 -456 -30 -562 79 -91 227 -93 319 -5 44 42 75 105 106 213 65
228 316 913 338 922 5 2 6 8 2 13 -3 5 0 9 5 9 6 0 10 3 10 8 -1 4 0 10 1 15
1 4 3 10 4 15 1 4 7 17 14 30 7 12 10 22 7 22 -3 0 3 12 12 27 10 15 17 28 16
30 -3 3 -3 5 2 21 10 36 274 683 304 747 32 67 66 144 124 280 130 307 168
389 188 411 23 24 259 106 629 219 102 31 230 72 285 90 155 52 634 177 900
235 132 28 269 60 305 71 36 10 173 37 305 59 132 22 269 47 305 55 113 24
470 65 569 65 33 0 62 -4 66 -9 5 -10 -38 -135 -54 -155 -5 -6 -20 -42 -34
-81 -54 -152 -188 -511 -197 -530 -6 -11 -30 -76 -54 -145 -46 -127 -109 -294
-163 -430 -17 -41 -53 -138 -81 -215 -28 -77 -76 -207 -106 -290 -30 -82 -87
-238 -126 -345 -39 -107 -75 -204 -79 -215 -5 -11 -15 -36 -21 -55 -7 -19 -19
-48 -26 -65 -29 -67 -221 -615 -330 -945 -49 -146 -92 -266 -96 -268 -4 -2 -4
-10 -1 -18 3 -8 1 -14 -5 -14 -6 0 -8 -9 -5 -20 3 -12 0 -20 -8 -20 -7 0 -9
-3 -6 -7 4 -3 2 -12 -4 -20 -6 -7 -8 -13 -4 -13 4 0 3 -6 -3 -12 -5 -7 -14
-29 -20 -48 -6 -19 -42 -139 -80 -265 -83 -270 -94 -310 -173 -595 -88 -318
-92 -342 -84 -500 7 -151 11 -183 32 -223 20 -39 91 -70 139 -61 44 8 100 55
118 98 7 17 31 52 52 77 103 121 82 66 284 744 35 116 67 217 71 225 5 8 31
89 59 180 112 360 332 1021 367 1100 3 8 7 17 8 20 1 3 5 12 8 20 4 8 41 112
83 230 154 438 176 495 190 518 8 12 12 22 8 22 -4 0 -1 7 6 15 7 8 9 15 5 15
-4 0 -2 7 5 15 7 8 9 15 5 15 -4 0 -3 6 2 13 6 6 18 37 28 67 10 30 21 60 25
65 4 6 13 28 20 50 13 41 76 217 157 435 26 69 50 127 53 130 4 3 25 57 48
120 23 63 66 183 97 265 31 83 76 206 101 275 24 69 51 139 59 157 8 17 15 34
15 37 0 11 118 321 147 386 16 36 44 107 63 158 50 141 45 137 192 136 73 -1
176 -10 253 -23 72 -12 145 -24 162 -27 44 -7 165 30 203 63 17 14 39 42 50
62 61 120 13 245 -119 311 -46 23 -256 63 -393 76 -98 9 -105 17 -83 86 10 29
21 58 25 63 3 6 15 33 25 60 29 82 135 348 150 380 8 17 62 148 120 293 58
145 117 288 131 320 14 31 34 77 44 102 67 167 210 509 249 595 55 118 74 163
131 300 34 83 73 169 86 193 14 23 22 42 18 42 -3 0 -2 6 5 13 6 7 28 56 50
109 22 52 55 128 74 169 19 41 52 115 72 164 20 50 59 135 87 190 28 55 50
102 51 105 0 3 13 34 29 68 15 35 28 66 28 69 0 2 21 46 46 96 25 51 77 166
116 257 39 91 74 170 77 175 4 6 25 51 46 100 35 85 51 119 141 313 20 42 44
97 54 122 10 25 39 90 65 145 26 55 67 150 92 210 46 111 92 215 120 270 33
67 122 304 133 358 24 117 -6 206 -84 252 -45 27 -56 28 -124 14z"/>
<path d="M33549 16817 c-18 -12 -44 -38 -56 -57 -13 -19 -30 -44 -39 -55 -8
-11 -29 -45 -45 -75 -16 -30 -47 -82 -69 -115 -22 -33 -49 -78 -61 -100 -12
-22 -32 -53 -44 -70 -13 -16 -35 -55 -50 -85 -15 -30 -42 -77 -60 -105 -26
-41 -97 -164 -136 -235 -29 -52 -79 -167 -79 -180 0 -8 -6 -27 -14 -42 -22
-42 -24 -165 -3 -218 35 -88 131 -119 223 -72 49 25 115 95 144 154 12 23 28
50 35 58 7 8 32 58 55 110 23 52 50 111 60 130 10 19 21 46 25 60 4 14 16 43
25 65 38 85 100 235 100 242 0 5 11 28 24 53 13 25 29 63 36 85 7 22 19 49 25
60 7 11 18 38 25 59 7 22 21 53 31 70 9 17 26 59 38 93 17 55 18 68 8 105 -24
82 -124 115 -198 65z"/>
<path d="M23522 15479 c-25 -13 -55 -40 -74 -68 -18 -25 -36 -50 -40 -56 -5
-5 -35 -48 -66 -95 -32 -47 -112 -161 -178 -253 -118 -168 -180 -257 -323
-464 -41 -59 -81 -115 -90 -123 -8 -8 -35 -46 -60 -85 -24 -38 -47 -72 -51
-75 -26 -20 -213 -324 -279 -453 -57 -112 -69 -173 -46 -232 17 -47 68 -91
110 -96 83 -11 170 40 250 147 32 43 62 81 65 84 14 11 153 216 181 266 17 30
35 57 40 60 5 3 32 46 60 97 28 51 70 124 95 162 24 39 58 97 75 130 18 33 42
74 54 90 12 17 44 71 70 120 27 50 59 104 71 120 12 17 38 62 58 100 21 39 62
111 92 160 30 50 66 110 80 135 14 25 40 69 59 98 18 30 36 71 40 92 8 47 -11
119 -33 127 -9 4 -20 11 -23 16 -14 21 -93 19 -137 -4z"/>
<path d="M28813 14353 c-29 -9 -53 -19 -53 -24 0 -5 -6 -9 -13 -9 -42 0 -127
-146 -127 -219 0 -21 -3 -41 -7 -45 -4 -4 -9 -30 -11 -59 -2 -29 -10 -58 -17
-66 -11 -12 -18 -4 -44 47 -57 112 -164 167 -321 165 -154 -2 -315 -70 -533
-225 -130 -93 -344 -300 -468 -453 -79 -97 -228 -315 -269 -393 -17 -31 -35
-64 -40 -72 -15 -24 -107 -226 -115 -252 -26 -94 -47 -113 -265 -243 -125 -74
-490 -263 -498 -257 -1 1 -17 -5 -35 -15 -17 -9 -34 -17 -37 -18 -3 0 -11 -4
-17 -8 -7 -5 -13 -6 -13 -2 0 3 -10 0 -22 -7 -13 -7 -25 -13 -28 -13 -3 -1
-18 -7 -35 -14 -57 -25 -130 -41 -187 -41 -79 0 -84 10 -69 153 7 61 16 116
20 122 5 5 16 48 25 93 9 46 20 91 25 100 5 10 14 50 21 90 7 39 16 72 20 72
4 0 7 6 7 13 1 6 13 71 27 142 42 206 56 307 57 433 2 134 -1 158 -32 250 -18
55 -33 78 -83 128 -34 34 -79 70 -101 81 -157 80 -360 44 -650 -114 -38 -21
-71 -41 -73 -45 -2 -5 -8 -8 -13 -8 -14 0 -172 -108 -259 -176 -41 -33 -87
-67 -102 -77 -15 -9 -66 -51 -113 -92 -78 -68 -115 -89 -115 -67 0 8 25 88 37
122 28 73 14 181 -30 244 -28 40 -110 76 -172 76 -96 -1 -167 -47 -278 -183
-138 -170 -163 -202 -217 -282 -29 -44 -57 -81 -62 -83 -4 -2 -8 -10 -8 -18 0
-8 -4 -14 -10 -14 -5 0 -10 -6 -10 -14 0 -8 -4 -16 -8 -18 -5 -1 -33 -39 -62
-83 -29 -44 -57 -83 -62 -86 -5 -3 -28 -33 -51 -67 -53 -76 -196 -262 -217
-282 -9 -8 -34 -37 -56 -65 -68 -86 -200 -224 -372 -388 -229 -218 -463 -380
-627 -437 -75 -26 -105 -19 -105 24 0 18 4 36 8 41 4 6 16 35 26 65 32 98 283
610 330 675 12 17 40 62 61 100 21 39 42 72 47 73 4 2 8 8 8 13 0 5 12 27 26
48 36 55 55 135 47 199 -18 155 -185 240 -335 169 -64 -31 -92 -54 -153 -132
-64 -81 -145 -174 -235 -270 -42 -44 -112 -120 -157 -170 -45 -49 -123 -133
-174 -185 -50 -52 -140 -145 -198 -206 -215 -225 -688 -644 -727 -644 -18 0
-17 32 2 100 9 30 24 93 34 140 10 47 19 85 20 85 2 0 6 26 20 140 6 50 15
110 21 135 14 64 10 233 -7 317 -26 128 -67 202 -146 259 -101 75 -265 91
-413 40 -178 -61 -320 -159 -608 -418 -59 -54 -113 -98 -119 -98 -7 0 -9 15
-5 43 9 67 28 161 38 179 5 9 9 68 10 131 1 98 -2 121 -22 168 -38 90 -77 135
-147 169 -104 50 -240 40 -385 -27 -66 -32 -252 -151 -327 -211 -48 -39 -254
-223 -360 -322 -35 -33 -66 -60 -69 -60 -3 0 -60 -56 -128 -125 -77 -79 -130
-125 -143 -125 -27 0 -25 21 5 95 39 93 77 253 79 330 1 58 -4 80 -26 127 -28
56 -72 103 -89 92 -5 -3 -9 0 -9 7 0 7 -3 9 -6 6 -4 -3 -15 -2 -26 4 -26 14
-106 13 -156 -1 -51 -16 -105 -60 -140 -114 -14 -22 -27 -43 -28 -46 -24 -85
-194 -387 -268 -477 -8 -10 -46 -59 -83 -109 -84 -113 -270 -342 -300 -369
-12 -11 -40 -42 -63 -70 -23 -27 -134 -143 -246 -257 -192 -194 -244 -236
-244 -194 0 18 48 185 60 211 6 11 26 83 45 160 20 77 42 163 50 190 8 28 22
106 31 175 45 343 -34 536 -242 593 -143 40 -272 3 -479 -136 -49 -33 -115
-81 -145 -106 -104 -86 -313 -296 -427 -428 -63 -73 -120 -133 -127 -133 -9 0
-15 37 -23 133 -9 120 -13 139 -46 207 -44 94 -84 132 -170 165 -79 29 -171
33 -257 10 -113 -30 -286 -135 -450 -275 -85 -72 -100 -72 -107 -2 -8 76 -75
158 -148 182 -47 15 -129 9 -177 -14 -46 -22 -112 -88 -146 -146 -14 -25 -40
-67 -57 -95 -18 -27 -63 -99 -101 -160 -408 -656 -1428 -1525 -1792 -1525 -78
0 -87 12 -90 127 -2 63 2 116 11 148 85 298 126 397 299 725 43 80 91 179 108
220 35 85 62 225 53 272 -27 143 -155 236 -287 208 -85 -17 -148 -69 -226
-185 -19 -27 -37 -51 -42 -53 -4 -2 -8 -7 -8 -12 0 -11 -351 -534 -362 -538
-4 -2 -8 -10 -8 -18 0 -8 -4 -14 -9 -14 -4 0 -27 -27 -51 -61 -23 -33 -51 -68
-61 -78 -10 -9 -65 -74 -121 -143 -454 -559 -960 -1006 -1363 -1204 -293 -144
-479 -138 -514 16 -13 55 -13 141 -1 195 5 22 16 73 25 113 41 187 192 598
246 671 11 15 21 34 23 42 3 17 66 142 75 149 7 5 106 180 139 245 46 91 38
177 -21 232 -46 44 -69 53 -128 53 -108 0 -200 -75 -327 -263 -77 -114 -240
-429 -292 -562 -17 -44 -37 -93 -45 -110 -16 -35 -77 -232 -100 -325 -52 -201
-67 -408 -40 -542 23 -119 81 -232 154 -305 112 -112 253 -163 451 -163 152 0
255 27 463 120 179 80 327 157 327 171 0 4 11 10 25 13 14 4 25 11 25 16 0 6
5 10 10 10 6 0 43 23 83 52 283 204 551 449 929 849 27 29 46 23 52 -13 29
-198 30 -201 68 -278 40 -82 134 -178 213 -217 162 -81 401 -72 631 23 231 95
406 199 649 384 65 50 125 89 133 88 8 -2 20 -19 26 -39 34 -97 101 -155 194
-166 112 -13 217 59 315 219 49 80 268 380 315 433 15 16 68 80 118 142 50 62
137 162 195 224 130 139 476 483 492 488 7 2 28 18 47 36 72 66 152 125 171
125 16 0 19 -7 19 -42 0 -49 -27 -204 -40 -233 -5 -11 -19 -65 -31 -119 -11
-55 -26 -111 -31 -125 -6 -14 -12 -30 -13 -36 -1 -5 -3 -12 -4 -15 -2 -3 -4
-12 -7 -20 -32 -121 -55 -194 -63 -204 -6 -7 -8 -16 -4 -19 3 -4 1 -12 -5 -19
-5 -7 -18 -40 -27 -73 -10 -33 -22 -67 -26 -75 -5 -8 -25 -55 -45 -105 -20
-49 -39 -94 -42 -100 -19 -31 -18 -121 2 -168 17 -42 75 -121 83 -113 3 2 20
-2 38 -10 74 -31 171 -10 244 51 32 28 98 122 176 255 22 36 43 66 47 68 4 2
8 10 8 17 0 7 4 15 9 17 5 2 35 44 66 93 32 50 61 92 65 95 4 3 31 41 60 85
29 44 57 82 62 83 4 2 8 10 8 18 0 8 5 14 10 14 6 0 10 6 10 14 0 8 4 16 8 18
4 2 40 46 79 98 167 222 225 295 239 303 7 4 14 11 14 16 0 22 367 400 468
482 40 32 80 59 88 59 10 0 14 -13 14 -49 0 -55 -15 -146 -29 -176 -6 -11 -17
-54 -26 -95 -21 -101 -107 -374 -195 -620 -63 -175 -84 -265 -85 -355 0 -106
36 -184 108 -232 131 -88 281 -61 487 86 111 79 288 231 440 376 69 66 151
144 182 174 32 30 60 52 64 49 3 -4 -6 -58 -21 -121 -27 -114 -27 -115 -10
-168 12 -38 32 -68 64 -99 79 -77 176 -91 279 -39 71 35 122 91 232 252 40 59
77 107 82 107 4 0 8 7 8 15 0 8 4 15 8 15 4 0 25 23 46 51 22 27 52 64 68 81
16 17 67 78 113 134 245 297 954 999 1075 1064 35 19 53 5 45 -32 -4 -18 -11
-37 -15 -43 -4 -5 -24 -60 -43 -122 -20 -62 -43 -127 -51 -145 -8 -18 -37 -91
-65 -163 -64 -169 -154 -384 -191 -460 -16 -33 -45 -100 -65 -149 -20 -49 -47
-105 -59 -125 -63 -100 -79 -144 -84 -232 -6 -122 22 -175 118 -218 62 -28
125 -27 186 4 79 39 114 80 297 342 38 54 94 130 125 169 232 288 317 389 436
514 34 36 102 108 152 160 132 141 337 323 438 391 85 56 118 69 130 51 17
-27 -3 -231 -38 -392 -33 -151 -85 -352 -95 -365 -5 -5 -21 -62 -36 -125 -15
-63 -33 -125 -38 -137 -11 -24 -4 -126 13 -184 37 -129 190 -215 340 -191 189
31 531 278 1009 730 48 45 92 82 98 82 17 0 23 -26 23 -93 0 -43 8 -81 25
-122 14 -33 25 -66 25 -73 0 -22 123 -137 171 -160 49 -24 53 -25 158 -43 185
-33 431 46 691 223 67 46 133 89 146 96 13 7 24 17 24 23 0 5 5 9 11 9 13 0
109 82 263 223 64 59 124 107 131 107 15 0 20 -14 30 -92 3 -27 10 -48 16 -48
5 0 9 -6 9 -14 0 -14 73 -85 90 -87 11 -2 27 -5 35 -8 6 -3 114 -3 118 -1 1 1
10 3 19 5 57 11 163 115 249 242 48 70 145 200 159 213 4 3 39 50 80 105 40
55 79 104 87 108 7 4 13 15 13 22 0 8 4 15 9 15 5 0 26 24 48 53 57 75 204
241 242 272 17 15 30 29 28 32 -12 12 483 464 531 485 9 4 60 39 112 78 92 67
288 175 340 185 50 10 63 -14 61 -112 -1 -48 -6 -92 -10 -98 -5 -5 -11 -41
-15 -79 -4 -38 -10 -74 -13 -80 -4 -6 -8 -17 -8 -26 -3 -29 -36 -175 -45 -195
-5 -11 -17 -56 -26 -100 -9 -44 -20 -84 -24 -90 -4 -5 -13 -44 -20 -85 -7 -41
-16 -79 -20 -85 -14 -18 -34 -177 -36 -285 -3 -136 24 -226 95 -321 84 -110
201 -156 396 -152 117 1 277 39 421 99 97 40 446 211 586 288 53 28 95 45 105
42 10 -3 30 -25 45 -49 56 -89 151 -155 268 -187 111 -31 325 -5 453 54 29 13
86 39 127 56 41 18 116 57 165 87 95 58 365 258 449 331 65 58 76 47 54 -51
-39 -177 -48 -213 -57 -232 -5 -11 -15 -49 -21 -85 -7 -36 -15 -69 -20 -75 -4
-5 -15 -43 -24 -83 -9 -40 -20 -81 -25 -90 -8 -16 -24 -69 -71 -237 -11 -38
-25 -79 -32 -90 -6 -11 -19 -49 -29 -85 -32 -115 -64 -197 -84 -220 -11 -13
-60 -42 -110 -66 -160 -77 -582 -330 -593 -356 -2 -5 -10 -8 -18 -8 -8 0 -14
-4 -14 -10 0 -5 -7 -10 -15 -10 -9 0 -18 -7 -21 -15 -4 -8 -9 -13 -13 -11 -4
3 -54 -34 -111 -80 -58 -47 -127 -103 -155 -126 -110 -89 -382 -366 -460 -469
-27 -35 -56 -72 -66 -81 -10 -10 -32 -39 -50 -65 -18 -27 -36 -50 -39 -53 -3
-3 -24 -34 -45 -70 -22 -36 -46 -73 -54 -82 -25 -30 -141 -260 -168 -333 -14
-38 -31 -83 -39 -100 -36 -78 -68 -286 -60 -390 7 -97 12 -127 32 -174 9 -20
17 -44 19 -55 6 -28 85 -128 106 -133 11 -3 19 -9 19 -14 0 -13 107 -65 173
-84 128 -37 386 31 554 146 23 16 46 29 51 29 26 0 288 237 370 334 24 28 56
65 71 81 44 47 124 147 151 185 13 19 54 76 90 125 37 50 77 108 90 130 13 22
42 69 66 105 56 86 191 327 234 418 19 39 38 72 42 72 4 0 5 7 2 15 -4 8 -1
15 6 15 6 0 8 5 5 10 -3 6 -2 10 4 10 5 0 13 10 17 23 7 24 41 102 79 182 32
68 108 247 133 315 11 30 27 68 36 84 8 17 21 52 28 78 21 83 63 118 203 167
331 117 579 162 865 156 165 -4 234 -25 370 -111 45 -29 62 -34 93 -31 48 6
99 45 122 92 14 31 15 44 5 83 -14 56 -134 210 -218 278 -71 59 -185 113 -248
121 -27 2 -51 8 -54 12 -3 4 -88 7 -190 6 -203 -2 -331 -20 -544 -75 -64 -16
-129 -30 -143 -30 -24 0 -25 2 -18 37 4 21 10 40 14 43 5 3 16 39 26 80 10 41
21 80 25 85 4 6 15 44 24 85 10 41 21 79 25 85 4 5 13 37 20 70 7 33 19 80 26
105 20 65 70 268 91 375 3 17 13 62 21 100 8 39 20 97 26 130 6 33 13 62 17
65 3 3 6 14 7 25 3 33 21 145 32 194 10 43 28 131 50 246 15 82 41 178 50 189
5 6 18 37 30 69 11 32 29 75 40 95 79 157 130 428 109 577 -33 225 -181 350
-355 298z m-257 -717 c3 -8 -6 -66 -20 -130 -22 -99 -33 -128 -81 -208 -31
-51 -64 -100 -73 -108 -9 -8 -42 -49 -74 -91 -55 -74 -354 -379 -395 -402 -11
-7 -56 -41 -99 -76 -171 -139 -371 -253 -507 -288 -61 -16 -70 -16 -95 -3 -16
9 -28 26 -30 40 -4 32 33 67 163 155 318 214 827 657 1001 870 36 44 72 88 80
98 7 9 35 49 60 87 48 71 60 81 70 56z m-879 -3181 c-3 -19 -20 -64 -37 -99
-17 -36 -31 -68 -31 -70 -1 -8 -112 -223 -166 -321 -78 -143 -242 -408 -263
-425 -4 -3 -22 -30 -42 -60 -19 -31 -43 -63 -52 -73 -10 -10 -39 -46 -64 -80
-25 -34 -51 -66 -58 -72 -7 -5 -31 -32 -55 -60 -23 -27 -89 -93 -146 -146
-168 -156 -341 -239 -373 -179 -11 21 5 206 20 225 4 5 15 35 25 65 28 88 121
266 186 358 22 31 58 84 81 117 23 33 52 71 64 85 12 14 49 57 82 95 96 111
209 224 311 310 51 44 99 86 107 93 7 6 17 12 23 12 6 0 16 9 23 20 7 11 17
20 21 20 5 0 36 21 69 46 111 86 243 173 262 174 16 0 18 -5 13 -35z"/>
<path d="M20098 9090 c-61 -16 -165 -66 -234 -115 -36 -25 -68 -45 -73 -45
-13 0 -233 -212 -301 -290 -36 -41 -68 -76 -72 -78 -7 -3 -125 -159 -221 -291
-26 -36 -56 -77 -67 -91 -49 -65 -102 -142 -151 -220 -29 -47 -55 -87 -59 -90
-4 -3 -26 -39 -50 -80 -24 -41 -46 -77 -50 -80 -10 -7 -80 -118 -132 -210 -23
-41 -46 -79 -51 -85 -5 -5 -26 -41 -48 -80 -22 -38 -58 -99 -80 -135 -23 -36
-57 -94 -76 -130 -40 -76 -113 -206 -170 -305 -22 -38 -75 -137 -117 -220 -43
-82 -81 -154 -86 -160 -17 -21 -360 -716 -360 -730 0 -2 -27 -62 -61 -132 -77
-163 -70 -148 -125 -283 -25 -63 -50 -119 -54 -125 -4 -5 -24 -53 -45 -105
-20 -52 -42 -108 -50 -125 -7 -16 -17 -42 -20 -58 -4 -15 -11 -27 -16 -27 -5
0 -8 -3 -8 -7 1 -5 0 -11 -1 -15 -1 -5 -3 -11 -4 -15 -1 -5 -10 -26 -20 -48
-10 -22 -26 -64 -37 -93 -10 -29 -22 -58 -26 -65 -4 -6 -9 -19 -10 -28 -1 -9
-8 -29 -14 -45 -7 -16 -13 -31 -14 -34 -1 -3 -7 -18 -14 -35 -7 -16 -26 -70
-43 -120 -17 -49 -34 -94 -38 -100 -4 -5 -26 -68 -48 -140 -22 -71 -48 -150
-57 -175 -44 -118 -169 -554 -239 -837 -13 -51 -34 -110 -48 -130 -35 -52
-310 -331 -439 -445 -191 -167 -430 -328 -488 -328 -36 0 -51 25 -67 110 -13
69 -14 109 -4 262 6 99 15 188 19 197 5 9 12 36 15 61 15 95 50 265 56 270 3
3 23 75 44 160 21 85 49 182 62 215 13 33 46 132 74 220 29 88 57 169 64 180
7 11 43 96 81 189 57 141 318 677 345 711 21 26 70 173 70 210 0 54 -40 137
-82 168 -45 35 -112 52 -170 43 -103 -15 -187 -104 -304 -321 -36 -66 -73
-133 -83 -150 -10 -16 -46 -82 -81 -145 -35 -63 -68 -120 -74 -126 -6 -7 -29
-42 -51 -78 -47 -78 -174 -278 -204 -321 -24 -33 -213 -296 -282 -391 -91
-125 -162 -219 -173 -229 -7 -5 -34 -39 -60 -75 -27 -36 -54 -69 -60 -75 -6
-5 -36 -41 -65 -80 -30 -38 -60 -75 -68 -81 -7 -6 -34 -38 -60 -70 -62 -77
-178 -209 -222 -251 -19 -18 -33 -33 -30 -33 9 0 -153 -171 -316 -333 -206
-205 -707 -637 -739 -637 -3 0 -43 -27 -88 -59 -98 -70 -275 -174 -412 -243
-206 -103 -436 -160 -569 -139 -103 15 -136 27 -189 66 -54 40 -102 106 -130
179 -30 78 -58 185 -63 241 -2 28 -9 100 -14 162 -8 83 -6 167 4 323 8 116 17
215 20 220 3 5 12 57 20 117 21 146 43 269 60 323 7 25 28 106 45 180 18 74
36 140 41 146 5 6 6 14 2 17 -3 4 0 14 8 23 8 10 12 18 10 18 -8 2 80 276 143
446 79 211 195 500 217 540 5 8 23 47 40 85 99 220 366 735 429 825 10 15 30
48 44 75 15 28 53 91 84 142 31 51 77 125 101 165 24 40 47 75 51 78 3 3 26
37 49 75 24 39 47 72 51 75 4 3 29 38 55 79 26 41 56 82 65 91 10 10 41 51 69
92 75 107 158 219 184 248 13 14 51 62 86 108 34 45 70 90 80 100 9 9 54 63
100 119 45 56 85 103 89 105 4 2 32 32 62 68 141 165 647 668 709 704 10 6 76
61 146 121 133 115 166 141 380 297 148 108 391 267 545 355 277 159 497 246
704 277 187 28 281 -13 369 -164 18 -30 41 -89 52 -130 28 -105 26 -331 -4
-485 -30 -152 -43 -208 -52 -225 -5 -8 -27 -78 -49 -155 -23 -77 -45 -141 -51
-143 -5 -2 -9 -8 -9 -13 0 -62 -288 -691 -384 -838 -47 -73 -69 -140 -60 -186
19 -102 138 -146 225 -84 32 22 116 129 181 228 20 31 40 61 45 66 75 91 317
561 391 760 17 44 44 118 62 165 17 47 44 138 60 203 16 64 32 122 35 127 3 5
15 76 25 157 69 516 -63 880 -383 1055 -125 67 -170 76 -377 74 -249 -4 -316
-21 -625 -156 -316 -138 -530 -264 -910 -533 -270 -191 -350 -255 -676 -538
-159 -139 -490 -464 -613 -603 -49 -54 -98 -108 -111 -120 -12 -12 -56 -61
-96 -111 -41 -49 -81 -97 -90 -105 -9 -8 -54 -64 -100 -123 -215 -276 -253
-327 -300 -392 -27 -38 -56 -77 -63 -87 -39 -45 -228 -327 -308 -458 -28 -47
-55 -87 -58 -90 -6 -5 -34 -52 -163 -273 -26 -45 -65 -116 -88 -157 -22 -41
-56 -102 -76 -135 -42 -70 -286 -551 -327 -645 -71 -162 -216 -530 -246 -625
-7 -22 -16 -44 -20 -50 -16 -20 -114 -337 -150 -485 -13 -52 -27 -96 -31 -98
-5 -2 -5 -10 -3 -17 3 -8 2 -20 -2 -27 -5 -7 -10 -17 -11 -23 -1 -5 -9 -37
-17 -70 -9 -33 -25 -112 -37 -175 -11 -63 -23 -122 -26 -130 -3 -8 -7 -26 -9
-40 -15 -108 -42 -285 -44 -285 -2 0 -7 -72 -18 -280 -9 -162 -4 -331 13 -415
3 -14 7 -46 10 -71 5 -51 36 -185 60 -257 3 -7 5 -16 5 -20 1 -4 27 -56 58
-117 98 -191 260 -331 452 -391 78 -24 99 -27 260 -26 170 0 199 2 291 17 53
9 230 64 245 76 6 5 52 24 102 43 50 18 137 59 194 91 56 32 108 58 115 59 7
1 29 14 50 28 21 14 85 57 143 96 237 160 296 203 457 337 298 247 632 573
878 855 27 30 51 57 55 60 4 3 24 25 45 50 21 25 59 70 85 100 59 68 172 202
223 264 21 25 43 46 49 46 16 0 7 -78 -41 -355 -12 -73 -18 -335 -9 -427 11
-107 51 -241 92 -306 13 -20 52 -64 88 -98 137 -128 293 -148 546 -69 7 3 14
5 17 5 12 0 116 57 180 98 84 54 244 174 339 255 43 37 72 55 78 49 6 -6 7
-42 3 -88 -12 -134 -9 -554 5 -630 6 -38 14 -88 16 -112 3 -23 11 -62 18 -85
8 -23 20 -62 26 -87 18 -72 82 -203 143 -295 45 -68 195 -218 242 -242 16 -9
44 -27 61 -40 37 -28 261 -108 354 -127 83 -17 283 -20 380 -6 124 17 450 142
450 172 0 4 7 8 15 8 8 0 15 3 15 8 0 4 12 13 28 19 72 33 275 248 335 357 12
21 29 50 37 65 9 15 15 50 15 84 -1 48 -5 61 -26 83 -65 64 -180 33 -242 -65
-110 -173 -290 -298 -495 -347 -185 -45 -456 -7 -545 76 -11 11 -34 26 -51 34
-44 21 -147 130 -189 201 -45 75 -89 201 -113 325 -39 205 -10 762 57 1085 5
28 16 80 23 116 15 80 47 147 90 191 18 18 52 58 77 88 24 30 51 62 60 70 8 8
33 38 55 65 21 28 44 55 50 60 6 6 33 39 60 75 26 36 53 70 60 75 6 6 31 37
55 70 23 33 48 65 54 70 7 6 29 35 50 65 22 30 42 57 45 60 6 5 140 182 201
265 50 70 230 331 264 384 15 25 31 49 36 55 10 12 150 221 211 314 37 57 48
75 197 322 45 74 88 141 95 150 8 8 24 35 36 60 13 25 26 47 30 50 4 3 22 32
39 65 55 103 92 167 146 255 29 47 92 159 140 250 48 91 91 167 95 170 3 3 37
64 75 135 38 72 79 147 92 167 13 21 23 44 23 52 0 8 4 16 9 18 5 2 34 55 66
118 32 63 61 117 66 118 5 2 7 8 3 13 -3 5 0 9 5 9 6 0 10 3 9 8 -1 4 43 97
98 207 54 110 99 202 99 205 1 3 25 55 55 115 30 61 55 112 55 115 2 6 29 66
61 138 13 29 24 55 24 57 0 2 11 28 24 57 23 49 57 126 61 138 6 18 27 68 35
85 14 29 77 196 114 300 17 50 35 93 39 96 5 3 8 9 8 13 -2 14 4 37 16 66 6
14 19 58 29 98 10 39 22 72 27 72 4 0 5 5 2 10 -3 6 -3 16 2 23 9 15 8 9 37
142 14 61 26 112 27 115 1 3 1 8 1 11 -1 4 3 22 8 40 16 54 13 228 -4 286 -26
83 -103 165 -169 179 -49 11 -154 13 -189 4z m-8 -464 c0 -42 -17 -134 -29
-161 -5 -11 -24 -72 -41 -135 -18 -63 -35 -119 -39 -125 -5 -5 -25 -62 -46
-125 -20 -63 -43 -124 -49 -135 -7 -11 -32 -72 -55 -135 -24 -63 -56 -141 -72
-172 -16 -32 -38 -81 -50 -109 -20 -51 -141 -305 -223 -469 -79 -158 -228
-445 -236 -455 -4 -5 -61 -107 -125 -225 -64 -118 -123 -222 -130 -230 -7 -8
-36 -58 -65 -110 -164 -293 -182 -324 -201 -347 -9 -10 -29 -40 -43 -68 -15
-27 -49 -86 -75 -130 -27 -44 -68 -111 -90 -150 -23 -38 -54 -88 -69 -111 -15
-22 -40 -62 -57 -88 -154 -243 -192 -302 -314 -484 -64 -94 -137 -202 -164
-240 -26 -37 -72 -103 -102 -147 -29 -44 -79 -114 -110 -155 -30 -41 -73 -100
-94 -130 -59 -84 -126 -154 -139 -146 -8 4 -8 13 -3 24 5 9 19 51 31 92 12 41
38 120 57 175 20 55 57 162 84 238 27 77 60 164 73 195 14 32 46 111 71 177
51 133 50 133 94 227 17 37 31 70 31 73 0 4 6 21 14 38 8 18 34 79 57 137 23
58 48 112 56 121 7 8 13 19 13 22 0 14 153 352 162 358 5 3 9 9 9 13 0 5 23
56 137 296 19 41 38 77 41 80 4 3 49 91 101 195 52 105 98 192 101 195 3 3 54
95 113 205 59 110 125 229 148 265 22 36 53 91 70 124 16 32 34 64 39 70 5 6
59 94 119 196 60 102 114 192 120 200 5 8 50 78 99 155 49 77 93 145 98 150 4
6 37 53 72 105 81 120 255 350 312 414 112 124 271 276 289 276 6 0 10 -15 10
-34z"/>
<path d="M28630 7909 c-134 -10 -227 -26 -475 -84 -110 -25 -209 -47 -220 -48
-12 -2 -26 -7 -33 -11 -7 -4 -16 -5 -21 -2 -5 4 -11 3 -13 -2 -1 -4 -55 -22
-118 -39 -132 -36 -275 -78 -510 -152 -91 -28 -174 -53 -185 -56 -11 -2 -21
-4 -22 -6 -2 -1 -7 -3 -13 -4 -5 -1 -12 -4 -15 -5 -3 -1 -8 -3 -12 -4 -5 -1
-13 -5 -19 -9 -21 -13 -138 -47 -212 -62 -41 -8 -113 -33 -162 -55 -72 -33
-202 -83 -232 -89 -5 0 -9 -1 -10 -2 -2 0 -11 -2 -20 -4 -29 -5 -93 -27 -103
-35 -14 -10 -424 -158 -455 -164 -33 -6 -257 -85 -292 -102 -33 -17 -276 -100
-508 -174 -91 -29 -178 -58 -195 -66 -39 -17 -176 -63 -206 -68 -13 -3 -26 -6
-29 -7 -3 -1 -9 -3 -15 -4 -5 -2 -12 -4 -15 -5 -3 -1 -14 -3 -25 -5 -40 -8
-322 -87 -375 -106 -74 -26 -303 -73 -478 -99 -151 -22 -540 -45 -607 -36 -22
3 -83 8 -135 11 -52 3 -131 15 -175 27 -44 11 -98 25 -120 30 -22 5 -82 29
-134 54 -114 56 -147 62 -206 40 -79 -31 -123 -107 -110 -194 18 -121 148
-226 360 -290 121 -36 234 -62 290 -66 28 -2 122 -9 210 -16 142 -12 187 -11
379 4 261 21 433 50 796 137 253 60 656 184 1138 350 129 45 241 82 250 84 9
2 17 4 17 5 0 1 11 4 25 6 13 3 49 16 80 30 95 44 451 169 480 169 31 0 19
-39 -57 -177 -76 -139 -303 -589 -303 -601 0 -4 -23 -55 -51 -114 -28 -59 -60
-128 -72 -153 -31 -67 -138 -257 -183 -324 -21 -32 -55 -82 -74 -111 -74 -111
-95 -141 -120 -171 -14 -17 -56 -75 -95 -129 -38 -54 -83 -115 -100 -136 -126
-158 -238 -295 -273 -333 -14 -15 -46 -54 -72 -85 -133 -165 -699 -722 -751
-740 -6 -2 -45 -28 -88 -58 -77 -56 -142 -93 -161 -93 -13 0 -13 94 -1 118 5
9 21 62 34 117 36 147 76 287 87 310 5 11 19 58 30 105 11 47 25 96 31 110 6
14 24 70 40 125 58 207 89 311 98 330 16 33 21 58 31 145 8 73 7 88 -10 127
-10 23 -16 43 -13 43 4 0 -6 14 -23 31 -61 64 -137 85 -224 59 -58 -17 -83
-12 -123 25 -39 35 -89 55 -138 55 -39 0 -125 -38 -203 -89 -38 -25 -79 -51
-90 -58 -41 -23 -363 -313 -516 -463 -85 -84 -173 -165 -195 -180 -79 -54
-205 -124 -715 -394 -80 -42 -179 -96 -221 -119 -222 -123 -288 -156 -323
-163 l-39 -7 7 29 c4 16 14 43 21 59 42 90 50 258 17 357 -46 133 -122 207
-256 247 -268 81 -597 -78 -1033 -500 -56 -55 -107 -99 -112 -99 -6 0 -11 8
-11 17 0 21 45 152 75 218 12 28 35 88 50 135 15 47 32 86 36 88 4 2 5 10 2
18 -3 8 0 14 6 14 6 0 10 3 9 8 -1 4 3 18 9 32 6 14 25 66 43 115 18 50 37 96
43 103 5 6 6 12 3 12 -4 0 -1 10 6 23 7 12 13 24 14 27 0 3 4 12 7 20 4 8 20
53 37 100 17 46 36 91 43 99 7 8 11 17 11 20 -1 3 2 16 7 29 5 13 9 29 9 36 0
6 4 16 9 21 5 6 26 55 46 110 21 55 42 106 47 113 6 6 8 12 5 12 -4 0 10 37
29 83 20 45 52 125 71 177 19 52 38 99 42 105 10 14 71 171 71 184 0 6 5 11
12 11 6 0 8 3 5 7 -4 3 -2 12 4 20 6 7 8 13 4 13 -4 0 -2 7 5 15 7 8 9 15 5
15 -4 0 -1 10 7 23 8 12 30 63 48 112 19 50 39 93 44 97 6 4 7 8 2 8 -5 0 -3
7 4 15 7 8 9 15 5 15 -4 0 -2 7 5 15 7 8 9 15 5 15 -4 0 -3 6 2 13 5 6 20 41
33 77 13 36 28 74 34 85 6 11 11 23 12 28 1 4 3 9 4 12 1 3 3 8 5 13 4 16 17
48 25 63 5 10 28 68 51 130 23 63 46 119 51 125 16 22 48 128 48 161 0 114
-116 180 -220 124 -61 -32 -144 -165 -241 -381 -18 -41 -40 -86 -49 -100 -16
-25 -90 -193 -90 -205 0 -3 -16 -38 -36 -78 -19 -39 -51 -110 -70 -157 -40
-98 -42 -103 -82 -190 -16 -36 -51 -119 -77 -185 -27 -66 -51 -124 -56 -130
-4 -5 -28 -64 -54 -130 -25 -66 -57 -142 -70 -170 -13 -27 -45 -104 -70 -170
-26 -66 -60 -148 -76 -183 -16 -35 -29 -65 -29 -68 0 -8 -71 -187 -96 -242
-13 -29 -24 -55 -24 -58 0 -8 -71 -196 -92 -242 -10 -24 -42 -105 -69 -180
-27 -75 -53 -141 -58 -146 -4 -6 -29 -72 -55 -146 -26 -74 -56 -153 -66 -175
-10 -22 -39 -100 -64 -174 -26 -74 -50 -139 -55 -145 -5 -6 -30 -74 -56 -151
-26 -77 -53 -151 -60 -165 -7 -14 -34 -88 -60 -165 -26 -77 -56 -158 -66 -180
-23 -49 -83 -206 -115 -299 -38 -109 -29 -183 28 -244 52 -55 95 -70 173 -61
36 5 75 15 87 23 21 15 78 33 172 55 53 13 232 86 256 105 8 7 60 39 115 71
55 33 141 88 191 122 51 35 95 63 99 63 9 0 197 138 296 217 36 29 69 53 73
53 3 0 48 29 99 64 113 78 253 160 412 242 66 34 197 105 290 159 94 54 217
123 275 153 57 29 116 62 130 72 14 9 75 43 135 75 61 31 140 73 177 93 37 20
70 33 74 29 9 -8 -6 -54 -42 -134 -13 -28 -24 -57 -24 -62 0 -6 -4 -11 -9 -11
-9 0 -33 -92 -51 -196 -10 -56 -8 -77 14 -182 10 -44 56 -111 103 -147 55 -42
155 -75 228 -75 57 0 199 46 302 99 82 41 262 171 368 264 100 89 320 309 343
344 8 13 23 23 33 23 17 0 18 -9 18 -93 0 -51 2 -99 5 -107 3 -8 7 -32 11 -53
7 -55 58 -149 100 -185 65 -57 181 -102 266 -102 87 0 328 96 446 177 37 26
93 63 123 84 143 95 689 633 824 812 27 35 49 46 60 29 2 -4 -2 -41 -10 -82
-59 -306 -55 -470 12 -587 28 -49 86 -109 125 -129 46 -23 154 -36 217 -24 31
6 71 13 87 16 64 11 186 92 325 213 138 121 424 420 556 581 16 19 34 40 40
45 20 18 189 218 245 291 29 38 82 104 119 149 14 16 50 64 81 105 30 41 93
127 141 190 47 63 109 151 139 195 29 44 56 82 60 85 3 3 36 50 72 105 68 103
104 145 122 145 5 0 25 -23 44 -51 39 -58 126 -139 188 -176 23 -13 89 -38
145 -54 99 -29 110 -30 278 -28 358 5 335 6 333 -16 0 -11 -13 -60 -28 -110
-14 -49 -35 -121 -45 -160 -11 -38 -24 -79 -29 -90 -6 -11 -17 -49 -26 -85 -9
-36 -22 -78 -29 -95 -20 -45 -39 -196 -33 -265 10 -113 77 -196 192 -239 122
-46 342 21 561 170 44 30 87 57 97 61 9 4 17 12 17 18 0 5 6 10 13 10 7 0 53
33 103 73 49 40 96 76 104 79 8 3 69 55 135 115 66 59 141 124 165 144 25 20
100 91 167 159 73 72 128 120 136 117 7 -3 23 -30 35 -61 38 -99 116 -197 198
-248 21 -13 73 -35 114 -48 94 -30 232 -30 360 1 47 11 92 22 101 24 77 16
253 114 384 214 48 36 104 78 124 93 83 60 311 313 371 413 14 22 31 48 40 58
33 38 146 259 156 306 4 14 12 35 19 46 27 45 79 314 69 361 -9 45 23 65 196
124 85 29 220 79 299 111 79 33 152 59 161 59 17 0 46 -55 56 -105 6 -29 63
-134 96 -177 17 -21 27 -38 23 -38 -9 0 75 -97 176 -204 41 -45 78 -89 82 -98
5 -16 -52 -91 -122 -159 -101 -98 -291 -363 -291 -406 0 -7 -4 -13 -9 -13 -10
0 -34 -62 -56 -147 -34 -126 -12 -260 57 -338 45 -51 117 -94 167 -100 20 -2
53 -7 73 -10 49 -9 179 12 237 37 25 11 54 20 64 21 9 1 17 5 17 10 0 4 4 6 9
3 15 -9 161 93 235 163 254 244 331 525 225 819 -29 81 -26 90 57 162 42 36
80 67 85 68 6 2 68 50 138 105 125 99 193 149 424 310 149 104 229 157 236
157 16 -1 31 -22 76 -105 26 -49 54 -97 61 -105 24 -26 88 -108 107 -134 10
-14 24 -26 32 -26 8 0 15 -4 15 -9 0 -10 185 -171 195 -171 11 0 44 -44 45
-58 0 -8 -56 -71 -124 -140 -69 -70 -142 -149 -162 -177 -21 -27 -41 -52 -44
-55 -4 -3 -26 -34 -50 -70 -110 -167 -153 -282 -153 -414 0 -78 4 -99 27 -146
57 -119 150 -180 305 -202 70 -10 84 -9 176 17 55 15 109 29 120 31 89 17 306
172 439 312 51 54 166 218 166 237 0 6 9 27 20 47 67 125 67 343 0 485 -16 36
-30 71 -30 78 0 28 129 121 431 311 92 58 506 277 549 291 8 3 48 17 167 62
163 61 300 98 453 122 192 31 288 34 421 14 63 -9 126 -18 140 -20 55 -7 236
-95 298 -144 99 -78 174 -81 243 -11 8 9 21 33 28 54 16 51 -6 109 -63 164
-68 66 -193 166 -234 188 -21 10 -67 36 -103 56 -36 20 -105 50 -155 66 -251
83 -453 88 -780 17 -38 -8 -79 -16 -90 -18 -11 -1 -24 -5 -30 -9 -5 -3 -26 -9
-45 -13 -94 -18 -419 -148 -625 -250 -123 -61 -373 -203 -465 -265 -49 -33
-94 -60 -100 -60 -5 0 -10 -4 -10 -10 0 -5 -6 -10 -14 -10 -8 0 -72 -43 -142
-96 -71 -53 -143 -103 -161 -112 -31 -15 -32 -14 -95 31 -99 72 -325 288 -348
334 -8 16 -22 39 -30 53 -36 55 -52 112 -40 140 11 27 88 90 109 90 6 0 11 5
11 10 0 6 5 10 11 10 7 0 73 44 148 98 75 53 163 115 196 137 92 61 222 175
242 212 10 18 21 33 25 33 4 0 12 17 18 39 25 95 -7 190 -79 228 -38 20 -54
22 -140 19 -83 -4 -129 -9 -138 -16 -2 -2 -7 -4 -13 -5 -5 -1 -13 -4 -17 -5
-5 -1 -11 -2 -15 -1 -11 1 -229 -113 -291 -152 -32 -20 -62 -37 -67 -37 -6 0
-10 -4 -10 -10 0 -5 -7 -10 -15 -10 -9 0 -18 -7 -21 -15 -4 -8 -10 -13 -14
-10 -9 5 -187 -167 -232 -225 -16 -19 -48 -70 -73 -115 -45 -79 -48 -81 -188
-178 -78 -53 -155 -104 -172 -113 -16 -8 -51 -33 -77 -55 -26 -21 -51 -39 -57
-39 -6 0 -11 -4 -11 -10 0 -5 -4 -10 -10 -10 -26 0 -576 -404 -588 -432 -2 -5
-8 -8 -14 -8 -5 0 -34 -20 -65 -45 -30 -25 -61 -45 -68 -45 -15 0 -167 154
-176 179 -4 9 -14 23 -24 31 -24 20 -96 118 -123 166 -28 52 -30 127 -4 150
14 13 216 135 342 206 131 74 276 200 323 279 32 56 37 72 37 128 0 53 -5 72
-27 107 -16 24 -34 44 -40 44 -7 0 -13 4 -13 9 0 16 -88 44 -138 44 -60 1
-143 -22 -264 -71 -109 -45 -194 -99 -320 -204 -79 -67 -208 -208 -208 -228 0
-23 -84 -87 -165 -125 -93 -43 -217 -93 -251 -99 -10 -3 -84 -28 -164 -56
-319 -114 -343 -118 -392 -70 -78 79 -159 114 -284 125 -69 6 -108 3 -209 -18
-5 -2 -16 -6 -22 -10 -7 -5 -13 -5 -13 -2 0 3 -27 -8 -61 -26 -62 -33 -147
-117 -176 -173 -29 -55 -43 -59 -83 -22 -45 43 -64 52 -122 61 -100 15 -202
-32 -273 -127 -22 -29 -50 -64 -63 -78 -12 -14 -25 -33 -28 -42 -3 -10 -9 -18
-13 -18 -5 0 -32 -39 -62 -86 -30 -47 -64 -101 -77 -121 -13 -20 -42 -72 -64
-117 -55 -108 -139 -243 -180 -287 -18 -20 -60 -67 -93 -105 -149 -171 -471
-490 -634 -629 -196 -166 -518 -405 -547 -405 -7 0 -4 57 5 86 5 16 26 83 46
149 20 66 45 149 56 183 11 35 22 91 26 123 3 33 10 62 15 65 14 9 -3 153 -24
210 -10 29 -37 72 -59 97 -91 104 -171 123 -443 107 -103 -7 -216 -9 -250 -5
-33 4 -76 9 -95 11 -55 7 -93 35 -123 93 -23 44 -28 66 -28 125 0 70 45 288
61 294 4 2 5 10 2 18 -3 8 0 20 6 27 6 8 12 22 14 33 2 10 7 26 10 34 3 8 18
51 33 95 15 44 32 86 37 93 5 7 11 46 13 88 4 92 -13 142 -67 188 -93 79 -205
73 -313 -16 -42 -35 -103 -153 -125 -243 -14 -58 -123 -284 -156 -323 -12 -15
-36 -52 -54 -82 -62 -106 -236 -367 -377 -565 -180 -253 -287 -400 -319 -437
-11 -13 -40 -50 -65 -83 -24 -33 -52 -69 -62 -80 -9 -11 -30 -36 -45 -56 -83
-107 -127 -159 -133 -159 -4 0 -21 -19 -37 -42 -17 -24 -46 -59 -65 -79 -18
-20 -76 -85 -128 -144 -181 -206 -536 -555 -564 -555 -18 0 -21 57 -7 125 5
22 16 78 26 124 9 46 20 91 25 100 5 9 18 57 30 106 12 50 26 95 30 100 4 6
17 48 30 95 12 47 26 90 31 96 5 6 10 19 12 30 2 10 7 26 10 34 3 8 15 47 28
85 12 39 26 76 32 83 5 6 6 12 2 12 -4 0 -2 6 4 13 6 8 8 17 4 20 -3 4 -1 12
5 19 5 7 23 51 40 98 76 216 145 381 227 545 44 86 155 285 175 315 10 14 39
68 65 120 26 52 53 102 60 110 13 16 123 217 213 390 30 58 62 116 71 130 10
14 36 66 60 115 23 50 48 97 55 105 7 8 29 55 51 103 21 48 49 96 62 107 13
10 101 44 196 76 95 31 178 61 185 67 6 5 12 6 12 2 0 -4 6 -3 13 3 7 6 40 18
73 26 61 14 319 92 509 153 132 42 241 73 275 78 14 2 36 6 50 9 261 55 319
66 341 66 14 0 29 4 35 9 8 9 320 40 559 56 54 4 132 1 195 -7 167 -21 230
-18 266 12 77 63 84 151 17 212 -29 26 -275 81 -532 119 -90 13 -317 17 -441
8z m2395 -1637 c82 -78 187 -112 351 -112 85 0 101 -11 86 -62 -6 -18 -14 -52
-17 -75 -4 -24 -11 -43 -16 -43 -6 0 -8 -4 -4 -10 3 -5 1 -17 -4 -27 -6 -10
-24 -48 -40 -86 -132 -299 -514 -653 -783 -724 -86 -22 -133 -12 -166 37 -21
32 -23 42 -18 124 3 49 10 94 14 100 5 6 14 35 21 64 15 60 103 267 125 291 7
9 24 36 36 61 13 25 46 77 75 115 28 39 76 106 106 150 30 44 59 83 64 87 6 3
28 43 50 87 21 45 44 81 50 81 5 0 37 -26 70 -58z m4389 -646 c9 -38 -12 -120
-45 -169 -16 -24 -67 -81 -113 -125 -83 -80 -151 -123 -213 -137 -29 -6 -33
-4 -33 13 0 21 65 120 121 187 65 76 250 255 263 255 8 0 17 -11 20 -24z
m-2191 -200 c-4 -89 -84 -197 -188 -257 -96 -55 -99 -32 -13 95 66 98 175 219
192 213 6 -2 10 -25 9 -51z m-9813 -906 c0 -19 -125 -206 -240 -360 -135 -180
-204 -261 -361 -424 -134 -139 -181 -181 -348 -313 -67 -53 -111 -68 -111 -36
0 16 102 215 122 237 5 6 22 29 36 52 64 98 87 131 155 217 40 51 77 97 83
102 6 6 33 39 61 75 28 36 77 90 109 120 64 61 185 150 203 150 6 0 11 5 11
10 0 6 6 10 13 10 6 0 64 38 127 85 108 81 140 98 140 75z m-2472 -442 c14
-14 16 -51 3 -76 -5 -9 -21 -45 -35 -79 -22 -54 -125 -219 -146 -233 -4 -3
-30 -33 -58 -67 -75 -90 -244 -256 -340 -333 -74 -60 -227 -152 -485 -292 -83
-45 -127 -59 -127 -39 0 21 191 292 309 436 109 135 326 363 407 429 167 137
228 180 309 220 91 46 141 56 163 34z"/>
<path d="M7625 4991 c-222 -61 -511 -287 -643 -501 -28 -45 -71 -131 -96 -190
-91 -215 -119 -392 -96 -599 22 -191 20 -215 -21 -257 -19 -20 -65 -61 -104
-92 -65 -53 -310 -263 -453 -389 -35 -31 -87 -74 -115 -96 -29 -23 -110 -93
-181 -156 -71 -64 -152 -135 -180 -157 -28 -23 -144 -131 -257 -240 -178 -172
-248 -244 -434 -444 -47 -52 -175 -218 -175 -229 0 -5 -4 -11 -9 -13 -11 -4
-131 -211 -131 -226 0 -7 -5 -12 -11 -12 -5 0 -7 -5 -3 -11 3 -6 1 -14 -5 -18
-6 -4 -20 -39 -32 -77 -23 -80 -27 -206 -9 -274 20 -78 73 -172 132 -235 137
-147 435 -226 730 -194 59 6 114 9 122 6 9 -4 18 -2 22 4 3 6 20 9 38 8 17 -1
38 1 46 4 8 3 56 13 105 22 281 51 766 218 1037 356 22 11 50 22 61 25 23 4
379 192 387 204 3 4 21 15 40 23 65 29 354 205 397 242 7 5 19 16 27 22 8 7
20 13 26 13 5 0 10 3 10 8 0 4 17 15 38 25 20 10 100 65 177 122 92 68 149
104 166 105 14 0 57 -17 95 -37 93 -51 298 -143 394 -178 192 -70 512 -163
585 -170 17 -2 71 -13 122 -24 81 -18 265 -37 348 -34 93 2 127 8 161 27 102
57 113 181 22 249 -18 13 -42 27 -53 31 -18 7 -139 30 -220 42 -16 3 -88 23
-160 45 -71 22 -139 41 -150 43 -92 18 -323 95 -350 117 -6 4 -29 12 -50 18
-83 20 -342 138 -365 167 -13 15 2 33 210 243 83 83 222 236 291 321 30 36 61
72 70 80 26 23 242 311 366 485 31 44 63 86 70 93 19 20 39 62 47 99 9 39 -22
116 -52 132 -43 23 -99 24 -144 2 -41 -19 -62 -42 -144 -158 -113 -158 -702
-736 -897 -880 -21 -15 -77 -58 -124 -96 -47 -37 -93 -67 -102 -67 -22 0 -118
66 -131 90 -6 11 -16 20 -23 20 -22 1 -401 382 -391 393 2 2 -11 19 -29 38
-41 45 -153 198 -199 274 -49 82 -108 205 -108 228 0 12 63 80 158 170 195
188 253 248 349 362 42 50 94 112 117 139 104 124 206 292 248 411 30 85 37
253 13 326 -25 75 -139 188 -215 213 -84 28 -275 32 -365 7z m154 -410 c32
-20 -50 -157 -217 -360 -45 -55 -88 -104 -95 -108 -6 -4 -56 -56 -110 -115
-55 -60 -105 -108 -113 -108 -36 0 3 186 63 305 83 164 198 287 332 353 83 42
114 49 140 33z m-797 -1548 c9 -10 30 -48 48 -85 18 -37 40 -75 49 -85 9 -10
36 -48 60 -85 24 -38 47 -68 52 -68 5 0 9 -7 9 -15 0 -7 6 -18 13 -22 6 -4 38
-42 69 -83 89 -118 185 -218 373 -391 71 -65 135 -119 142 -119 12 0 33 -30
33 -48 0 -7 -167 -128 -231 -167 -9 -5 -49 -31 -88 -57 -39 -27 -73 -48 -76
-48 -7 0 -130 -73 -135 -80 -12 -17 -280 -164 -460 -252 -246 -121 -450 -206
-660 -275 -262 -86 -392 -114 -634 -137 -140 -14 -185 -12 -311 10 -48 8 -89
37 -108 77 -16 32 -17 44 -7 89 14 66 113 246 155 283 7 6 42 49 79 98 38 48
76 92 87 98 10 5 19 15 19 20 0 13 499 509 512 509 5 0 46 35 91 78 116 109
344 312 391 347 22 17 141 119 265 228 124 108 231 197 237 197 6 0 18 -8 26
-17z"/>
</g>
</svg>
