<?xml version="1.0" standalone="no"?>
<!DOCTYPE svg PUBLIC "-//W3C//DTD SVG 20010904//EN"
 "http://www.w3.org/TR/2001/REC-SVG-20010904/DTD/svg10.dtd">
<svg version="1.0" xmlns="http://www.w3.org/2000/svg"
 width="4039.000000pt" height="1747.000000pt" viewBox="0 0 4039.000000 1747.000000"
 preserveAspectRatio="xMidYMid meet">

<g transform="translate(0.000000,1747.000000) scale(0.100000,-0.100000)"
fill="#A17A32" stroke="none">
<path d="M11745 17130 c-3 -5 -23 -10 -43 -10 -41 0 -258 -24 -367 -41 -103
-16 -389 -91 -550 -144 -77 -25 -162 -53 -190 -61 -60 -20 -282 -113 -380
-160 -38 -19 -75 -34 -81 -34 -6 0 -80 -37 -165 -82 -85 -45 -185 -98 -224
-118 -140 -73 -491 -298 -562 -360 -24 -21 -57 -44 -74 -53 -17 -8 -52 -33
-78 -55 -25 -22 -100 -85 -166 -139 -261 -215 -499 -453 -697 -697 -49 -61
-106 -131 -126 -155 -21 -24 -36 -48 -35 -53 2 -4 -2 -8 -7 -8 -6 0 -10 -7
-10 -15 0 -8 -3 -15 -8 -15 -4 0 -16 -16 -26 -35 -10 -19 -26 -42 -35 -52 -52
-56 -270 -470 -305 -578 -113 -350 -139 -485 -139 -740 -1 -247 24 -394 118
-680 41 -124 205 -432 328 -615 131 -196 375 -529 423 -578 19 -19 34 -41 34
-48 0 -7 6 -17 13 -21 6 -4 18 -20 26 -35 8 -15 26 -40 41 -55 41 -43 137
-174 241 -328 52 -77 97 -141 102 -143 4 -2 7 -10 7 -18 0 -8 4 -14 9 -14 5 0
11 -10 15 -22 3 -13 26 -54 50 -92 47 -73 154 -280 160 -312 3 -11 11 -36 20
-56 22 -52 21 -59 -22 -103 -55 -58 -158 -145 -170 -145 -6 0 -19 -11 -29 -24
-11 -13 -73 -70 -139 -126 -362 -311 -739 -670 -890 -850 -134 -160 -235 -300
-217 -300 4 0 4 -4 -2 -8 -15 -11 -55 -110 -72 -177 -22 -87 -12 -166 32 -256
45 -93 70 -119 159 -163 94 -48 169 -66 296 -72 134 -7 260 12 445 67 338 100
671 335 860 606 56 80 166 268 170 291 2 10 4 17 5 17 1 0 3 7 5 15 2 8 14 44
28 80 14 36 37 119 52 185 38 164 46 408 19 587 -10 68 -17 133 -17 146 1 37
-1 35 388 345 83 66 170 139 195 162 25 24 63 54 86 68 22 14 58 42 80 62 21
21 107 92 189 158 527 424 674 544 695 567 8 9 35 31 60 48 25 16 90 71 145
121 55 50 105 91 111 91 6 0 21 12 35 26 13 14 125 112 249 217 507 431 967
841 1204 1072 39 38 89 85 111 104 22 18 132 122 245 231 210 203 273 260 284
260 14 0 4 -22 -29 -68 -19 -27 -32 -52 -28 -55 3 -4 1 -7 -5 -7 -7 0 -12 -6
-12 -14 0 -8 -7 -16 -15 -20 -8 -3 -15 -12 -15 -20 0 -8 -3 -16 -7 -18 -11 -4
-47 -54 -158 -218 -53 -80 -121 -176 -149 -214 -28 -37 -50 -72 -49 -77 2 -5
-2 -9 -7 -9 -6 0 -10 -5 -10 -10 0 -6 -4 -16 -10 -23 -43 -52 -345 -494 -380
-556 -8 -14 -18 -27 -22 -29 -5 -2 -8 -8 -8 -14 0 -9 -58 -99 -70 -108 -4 -3
-56 -81 -115 -175 -59 -93 -132 -204 -161 -246 -29 -42 -51 -79 -47 -83 3 -3
1 -6 -5 -6 -7 0 -12 -7 -12 -15 0 -8 -4 -15 -9 -15 -5 0 -11 -10 -15 -23 -3
-12 -14 -32 -25 -43 -10 -12 -48 -68 -84 -125 -154 -248 -192 -308 -233 -368
-23 -36 -41 -68 -38 -73 3 -4 1 -8 -3 -8 -5 0 -13 -9 -18 -20 -6 -11 -37 -64
-70 -117 -32 -54 -87 -147 -120 -208 -34 -60 -81 -143 -105 -184 -24 -41 -67
-127 -95 -190 -29 -64 -61 -136 -73 -161 -64 -142 -88 -311 -59 -411 23 -75
103 -171 171 -200 74 -33 173 -36 277 -10 122 31 506 230 613 318 15 13 42 30
60 37 17 7 51 29 76 47 25 19 111 80 191 136 218 151 438 311 488 354 24 22
62 51 85 66 83 56 696 536 761 596 108 101 118 63 31 -128 -34 -74 -82 -228
-102 -324 -25 -128 -16 -266 23 -353 85 -185 268 -269 499 -227 82 15 187 45
264 76 78 33 351 181 436 237 223 148 454 316 568 413 63 53 68 48 60 -64 -17
-253 110 -423 345 -463 84 -14 173 -3 321 39 123 36 179 62 356 169 134 80
226 145 301 214 24 21 47 38 52 38 12 0 321 309 321 321 0 4 10 19 23 32 87
93 161 201 259 377 63 113 106 206 113 240 2 9 12 48 23 86 56 192 70 387 37
534 -10 41 -20 85 -22 97 -3 14 0 24 8 27 8 2 122 9 254 15 332 15 501 36 885
112 315 62 531 120 760 204 101 37 140 43 140 22 0 -7 -55 -91 -122 -185 -68
-95 -157 -220 -198 -279 -41 -58 -80 -111 -85 -117 -28 -29 -66 -86 -59 -86 5
0 1 -5 -8 -11 -10 -5 -18 -17 -18 -24 0 -8 -4 -15 -10 -15 -5 0 -10 -7 -10
-15 0 -8 -4 -15 -10 -15 -5 0 -10 -4 -10 -10 0 -5 -9 -20 -20 -33 -11 -12 -79
-110 -151 -217 -73 -107 -135 -197 -138 -200 -17 -13 -50 -68 -44 -74 3 -3 1
-6 -5 -6 -7 0 -12 -7 -12 -15 0 -8 -4 -15 -10 -15 -5 0 -10 -5 -10 -12 0 -6
-18 -34 -39 -62 -22 -28 -94 -136 -161 -240 -67 -104 -128 -195 -136 -203 -18
-18 -37 -53 -40 -73 -2 -8 -8 -16 -13 -18 -6 -2 -11 -10 -11 -18 0 -8 -4 -14
-10 -14 -5 0 -10 -4 -10 -9 0 -5 -36 -63 -80 -129 -44 -66 -80 -123 -80 -126
0 -6 -92 -152 -164 -261 -25 -38 -46 -75 -46 -81 0 -7 -6 -19 -13 -26 -12 -12
-44 -65 -233 -382 -33 -54 -80 -133 -105 -175 -25 -42 -73 -127 -108 -189 -34
-62 -75 -131 -90 -155 -16 -23 -41 -67 -57 -97 -15 -30 -59 -111 -98 -180 -38
-69 -101 -186 -139 -260 -38 -74 -96 -183 -129 -243 -32 -59 -61 -117 -63
-129 -3 -11 -33 -80 -69 -152 -81 -166 -127 -264 -131 -285 -2 -9 -31 -87 -63
-173 -70 -182 -118 -361 -128 -468 -16 -187 63 -342 206 -409 75 -35 189 -36
275 -3 144 55 275 140 440 283 307 267 683 682 1020 1124 54 72 111 143 127
159 15 16 25 32 23 36 -3 5 2 10 10 14 8 3 15 11 15 17 0 12 66 107 87 124 11
10 227 333 273 410 13 22 27 42 30 45 4 3 9 13 13 22 3 10 35 62 70 115 35 54
81 130 102 168 20 39 72 135 115 215 86 159 255 527 288 630 59 178 96 322
117 460 4 25 11 53 16 62 5 9 49 38 97 64 48 26 110 59 137 73 107 58 465 297
540 361 33 28 76 60 96 70 20 11 50 32 65 47 16 16 79 68 139 118 129 104 310
261 412 357 40 38 76 68 81 68 5 0 9 -57 8 -127 -1 -121 1 -131 28 -191 54
-117 174 -192 305 -192 71 0 193 36 316 92 185 86 647 404 852 587 43 39 82
71 86 71 5 0 56 44 113 97 109 102 132 119 141 109 4 -3 2 -56 -4 -116 -15
-147 -3 -243 42 -337 116 -246 363 -314 698 -192 117 43 269 116 354 171 41
27 88 54 106 62 18 8 41 21 52 30 11 9 86 63 167 119 191 133 419 310 509 395
39 37 77 69 85 72 17 6 155 138 416 397 112 112 201 192 207 189 22 -14 18
-31 -106 -413 -35 -111 -66 -208 -67 -215 -1 -7 -5 -19 -9 -25 -5 -7 -6 -13
-3 -13 6 0 -82 -253 -149 -425 -26 -66 -47 -128 -47 -137 1 -10 -3 -18 -6 -18
-4 0 -8 -8 -9 -17 -1 -10 -34 -94 -73 -188 -40 -93 -85 -204 -102 -245 -65
-162 -103 -249 -148 -345 -26 -55 -59 -131 -75 -170 -43 -109 -103 -220 -147
-270 -22 -25 -101 -100 -176 -167 -76 -67 -144 -129 -152 -139 -8 -10 -31 -30
-50 -44 -19 -14 -80 -68 -135 -121 -55 -52 -145 -137 -200 -189 -170 -161
-796 -787 -844 -845 -26 -30 -79 -88 -119 -129 -39 -41 -72 -80 -72 -87 0 -7
-4 -14 -8 -16 -38 -15 -320 -382 -412 -538 -35 -58 -73 -121 -86 -140 -76
-117 -125 -325 -104 -441 21 -114 72 -182 170 -228 107 -50 298 -26 440 56 85
49 305 219 420 325 179 165 328 325 511 548 48 58 102 122 121 143 19 21 41
50 49 65 8 15 20 31 26 35 7 4 13 15 13 22 0 8 4 15 8 15 17 0 374 525 364
534 -3 3 -1 6 5 6 6 0 14 11 17 25 4 14 11 25 16 25 6 0 10 6 10 14 0 8 6 21
13 28 29 29 246 415 360 638 108 213 151 290 189 337 33 41 241 228 326 294
26 20 85 71 132 114 46 42 96 84 110 93 14 9 50 39 81 67 64 58 161 137 544
444 154 123 298 240 321 261 81 74 78 73 267 75 146 1 181 5 232 22 90 32 292
116 361 152 34 17 65 31 69 31 12 0 485 267 495 280 3 3 66 44 140 91 74 46
177 114 229 149 52 36 112 76 135 89 23 13 68 43 101 66 78 55 140 86 158 79
8 -3 32 -32 52 -65 20 -33 48 -72 62 -87 14 -15 36 -43 48 -62 41 -64 198
-209 302 -278 66 -45 198 -106 303 -141 224 -73 520 -68 772 13 183 60 379
141 398 165 3 3 50 33 105 66 123 74 261 176 380 281 99 88 268 272 292 318 9
16 34 52 56 80 49 62 182 336 162 336 -2 0 5 30 16 68 41 139 60 274 66 454 7
204 -2 238 -63 264 -53 22 -74 17 -118 -29 -36 -37 -43 -54 -59 -127 -39 -182
-82 -319 -128 -416 -26 -56 -54 -108 -62 -115 -7 -8 -33 -41 -57 -74 -24 -33
-69 -87 -100 -121 -30 -33 -88 -99 -128 -147 -91 -106 -235 -234 -390 -345
-185 -131 -407 -231 -607 -273 -139 -29 -307 -23 -414 15 -212 75 -339 183
-498 424 -97 147 -134 185 -222 224 -63 29 -144 34 -221 14 -68 -18 -184 -68
-210 -91 -8 -7 -43 -27 -77 -44 -34 -17 -67 -37 -75 -44 -37 -38 -285 -193
-294 -184 -6 6 63 63 216 177 69 51 132 100 140 109 8 9 92 74 185 145 226
172 391 304 442 356 63 64 86 120 81 196 -3 54 -9 68 -42 108 -52 64 -87 80
-171 81 -76 0 -102 -10 -285 -111 -93 -51 -340 -202 -436 -268 -166 -111 -524
-372 -654 -475 -52 -42 -116 -92 -141 -111 -26 -19 -81 -66 -123 -105 -41 -38
-84 -74 -95 -80 -50 -26 -481 -446 -481 -467 0 -4 -8 -17 -17 -29 -79 -97 -81
-99 -433 -376 -266 -210 -595 -475 -665 -537 -27 -24 -60 -47 -73 -51 -22 -6
-23 -4 -19 27 3 18 6 33 7 33 1 0 3 10 6 23 2 13 10 35 18 50 26 50 148 366
181 467 18 55 69 202 113 326 44 125 83 242 86 260 3 19 25 97 50 174 56 177
156 531 161 564 1 14 4 26 5 26 1 0 3 9 5 20 1 11 16 87 34 168 49 233 39 330
-44 413 -52 51 -98 67 -181 62 -56 -3 -71 -9 -136 -53 -40 -28 -104 -84 -143
-125 -38 -41 -95 -99 -125 -130 -30 -30 -76 -80 -101 -110 -58 -70 -443 -457
-529 -532 -36 -31 -92 -82 -125 -114 -138 -131 -533 -436 -720 -554 -38 -25
-72 -48 -75 -51 -12 -16 -170 -104 -261 -144 -184 -83 -272 -103 -300 -68 -9
11 -13 38 -12 82 2 59 10 146 13 146 1 0 3 11 5 25 10 77 65 224 160 430 153
333 157 346 135 425 -7 25 -16 45 -20 45 -4 0 -10 9 -13 19 -2 11 -24 32 -47
47 -35 24 -54 29 -104 29 -100 0 -136 -24 -356 -240 -107 -105 -256 -247 -330
-315 -74 -68 -139 -129 -143 -137 -5 -7 -25 -24 -45 -37 -20 -14 -84 -67 -142
-120 -58 -53 -109 -96 -115 -96 -6 0 -27 -16 -47 -35 -86 -84 -427 -327 -588
-419 -36 -21 -83 -48 -105 -62 -51 -30 -85 -32 -85 -4 0 28 63 195 112 299 22
47 60 132 85 190 40 98 136 282 254 491 78 138 84 205 26 291 -47 70 -150 99
-232 65 -38 -16 -124 -92 -134 -117 -3 -10 -29 -43 -57 -76 -28 -32 -97 -112
-154 -178 -324 -380 -694 -738 -1099 -1064 -206 -166 -201 -162 -371 -280
-221 -154 -498 -320 -533 -321 -10 0 -48 18 -84 40 -108 65 -208 74 -327 30
-29 -11 -67 -31 -86 -45 -40 -30 -50 -31 -50 -7 0 16 23 52 125 197 19 27 35
55 35 62 0 7 5 13 10 13 6 0 10 7 10 15 0 8 4 15 8 15 5 0 44 53 87 118 125
185 216 314 252 356 18 21 30 42 28 46 -3 5 2 10 10 14 8 3 15 12 15 21 0 8 5
15 10 15 6 0 10 6 10 13 0 7 19 35 41 62 23 28 62 79 87 115 43 61 193 269
306 425 28 38 74 96 103 129 29 33 50 63 48 67 -3 4 2 9 10 13 8 3 15 12 15
20 0 7 7 16 15 20 8 3 15 12 15 21 0 8 4 15 9 15 4 0 42 44 83 98 86 111 143
167 243 237 39 27 79 58 90 68 11 9 42 30 70 46 27 16 62 40 77 54 15 14 73
62 128 107 224 181 435 391 560 555 34 44 67 88 75 97 20 24 57 98 49 98 -4 0
-2 6 4 13 13 15 14 185 1 193 -23 14 -8 45 29 61 47 20 161 51 230 64 29 6 86
21 125 33 195 63 525 166 552 171 17 4 167 51 335 105 168 54 316 100 330 103
14 3 144 44 290 92 146 49 297 96 335 107 39 10 212 63 385 117 173 54 338
104 365 110 28 6 100 27 160 46 214 66 311 94 410 121 55 14 204 55 330 90
217 60 438 116 640 163 50 11 155 36 235 55 307 73 521 115 765 151 61 9 164
25 230 35 105 16 293 39 450 55 166 17 373 26 610 26 273 0 428 -9 610 -37
136 -21 486 -99 560 -125 99 -35 188 -70 227 -90 53 -27 109 -25 137 5 33 36
38 95 12 143 -50 88 -493 378 -610 399 -20 4 -81 17 -136 30 -197 45 -507 74
-805 74 -343 0 -721 -32 -1295 -111 -142 -19 -446 -80 -725 -144 -85 -20 -190
-42 -233 -50 -97 -18 -289 -66 -557 -140 -113 -31 -225 -61 -250 -65 -25 -5
-144 -37 -265 -73 -234 -68 -426 -123 -540 -155 -38 -11 -135 -40 -215 -66
-80 -25 -208 -64 -285 -87 -77 -23 -277 -86 -445 -140 -168 -53 -316 -100
-330 -104 -14 -3 -162 -50 -330 -104 -168 -55 -363 -117 -435 -139 -71 -22
-182 -56 -245 -77 -121 -39 -252 -79 -385 -116 -44 -12 -145 -42 -225 -65 -80
-24 -212 -62 -295 -85 -82 -22 -235 -65 -340 -95 -104 -29 -255 -71 -335 -94
-80 -22 -172 -45 -205 -50 -33 -5 -94 -18 -135 -29 -283 -73 -527 -112 -746
-118 -166 -5 -189 -4 -273 17 -107 27 -147 21 -196 -30 -25 -26 -30 -40 -31
-83 -2 -61 14 -97 58 -130 57 -43 110 -63 218 -85 142 -28 269 -35 430 -23
314 24 518 57 843 137 121 30 223 54 228 54 28 0 0 -46 -68 -111 -106 -102
-240 -244 -287 -304 -21 -27 -74 -88 -117 -134 -43 -46 -79 -89 -79 -94 0 -5
-11 -18 -25 -29 -14 -11 -25 -24 -25 -29 0 -6 -44 -54 -98 -108 -66 -65 -116
-106 -153 -124 -30 -14 -133 -64 -229 -110 -96 -47 -222 -101 -280 -122 -233
-83 -509 -174 -575 -189 -658 -153 -916 -186 -1459 -186 -297 0 -314 -1 -375
-22 -53 -19 -70 -31 -95 -66 -60 -84 -70 -155 -34 -243 12 -30 25 -56 28 -59
3 -3 14 -22 24 -42 11 -21 22 -38 26 -38 13 0 60 -117 71 -177 21 -112 -11
-293 -76 -430 -19 -40 -32 -73 -29 -73 17 0 -124 -218 -224 -345 -81 -103
-293 -310 -402 -391 -216 -161 -335 -228 -491 -277 -85 -26 -99 -21 -99 38 0
25 3 45 8 45 4 0 7 13 8 29 1 29 208 455 241 496 5 6 48 73 97 150 98 154 193
295 211 310 23 20 77 95 68 95 -4 0 0 5 10 11 9 5 17 16 17 23 0 8 7 16 15 20
8 3 15 9 15 14 0 5 16 27 35 48 53 58 95 148 95 204 0 99 -81 188 -178 198
-95 9 -154 -29 -269 -172 -145 -180 -313 -362 -529 -576 -311 -306 -577 -536
-809 -700 -49 -35 -118 -85 -152 -111 -35 -27 -82 -57 -105 -69 -24 -11 -61
-33 -83 -49 -52 -38 -276 -161 -293 -161 -6 0 -36 -11 -65 -25 -67 -33 -163
-58 -189 -49 -19 6 -20 12 -15 73 12 140 43 238 132 426 26 55 60 129 75 165
15 36 59 130 98 210 110 226 131 310 98 401 -19 53 -80 114 -139 139 -98 43
-209 10 -402 -119 -49 -32 -110 -77 -133 -98 -24 -21 -72 -58 -107 -83 -35
-25 -162 -124 -282 -220 -229 -183 -235 -188 -483 -380 -85 -67 -185 -144
-222 -173 -88 -68 -209 -157 -393 -287 -82 -59 -170 -121 -195 -139 -25 -18
-70 -49 -102 -69 -31 -20 -89 -60 -130 -88 -98 -68 -402 -244 -422 -244 -10 0
-16 9 -16 21 0 26 188 408 243 492 22 34 69 113 105 176 68 121 105 180 183
299 27 41 49 80 49 88 0 8 3 14 8 14 4 0 12 9 17 20 6 10 44 72 85 137 41 64
77 122 79 128 2 5 50 80 106 165 56 85 159 245 229 355 71 110 143 223 162
250 19 28 127 190 240 360 114 171 213 315 219 320 7 6 44 57 82 115 105 160
335 493 350 509 21 21 93 129 93 140 0 5 4 11 8 13 8 3 91 120 236 333 37 55
85 122 106 149 22 28 37 53 34 58 -3 4 0 8 5 8 6 0 11 6 11 14 0 8 7 16 15 20
8 3 15 11 15 19 0 7 9 23 20 34 11 12 80 113 153 225 73 112 150 225 170 251
20 27 37 55 37 63 0 8 5 14 10 14 6 0 10 7 10 15 0 8 5 15 10 15 6 0 10 6 10
14 0 8 7 22 15 30 9 9 49 69 90 133 41 65 117 184 170 265 52 81 95 154 95
162 0 9 3 16 8 16 4 0 12 8 17 19 6 10 26 47 45 82 28 53 34 75 35 126 0 53
-4 67 -31 105 -46 62 -75 81 -138 86 -46 4 -65 0 -112 -23 -45 -22 -69 -45
-132 -124 -114 -144 -311 -379 -321 -383 -4 -1 -36 -38 -70 -80 -34 -42 -76
-89 -93 -103 -17 -15 -68 -68 -112 -118 -45 -51 -150 -161 -234 -244 -84 -84
-150 -153 -147 -153 3 0 -69 -73 -161 -162 -92 -90 -250 -244 -350 -343 -101
-99 -245 -238 -320 -310 -76 -71 -186 -177 -246 -234 -59 -58 -121 -113 -138
-124 -16 -10 -30 -23 -30 -27 0 -22 -1217 -1099 -1353 -1198 -18 -13 -78 -64
-135 -115 -57 -51 -108 -94 -115 -96 -7 -2 -32 -23 -57 -46 -46 -43 -268 -224
-630 -514 -113 -90 -225 -183 -250 -206 -25 -24 -63 -54 -85 -68 -22 -13 -62
-45 -90 -70 -99 -90 -600 -487 -615 -487 -10 0 -31 31 -55 83 -22 45 -43 84
-46 87 -13 11 -48 88 -42 94 4 3 2 6 -4 6 -5 0 -10 6 -10 13 0 18 -267 432
-320 497 -25 30 -49 65 -54 78 -5 12 -13 22 -19 22 -5 0 -10 6 -10 14 0 7 -17
33 -38 57 -21 24 -110 141 -198 259 -145 194 -193 259 -331 448 -23 31 -42 63
-43 70 0 6 -5 12 -12 12 -6 0 -8 3 -5 6 4 4 -9 28 -27 53 -45 61 -176 295
-176 313 0 8 -5 19 -12 26 -7 7 -9 12 -6 12 4 0 -6 28 -21 63 -78 171 -115
359 -114 572 0 179 26 335 82 495 16 47 41 117 55 157 30 86 53 133 147 294
70 122 191 304 214 324 18 15 85 101 85 109 0 3 8 14 18 25 9 10 51 56 92 102
126 142 270 286 390 392 63 56 130 118 150 137 19 20 60 52 90 73 30 20 75 55
100 78 48 44 407 287 475 321 22 12 71 41 109 65 152 98 582 304 766 368 36
12 139 48 229 79 204 70 313 98 533 135 404 69 672 68 973 -4 122 -29 287
-103 345 -155 19 -17 54 -45 77 -61 45 -31 143 -145 143 -166 0 -6 4 -13 8
-15 15 -6 80 -171 99 -248 12 -53 17 -115 17 -210 0 -155 -17 -255 -70 -418
-19 -59 -37 -116 -39 -128 -6 -25 -93 -224 -105 -239 -5 -6 -41 -68 -80 -138
-73 -134 -153 -258 -193 -300 -12 -14 -29 -38 -37 -54 -8 -15 -21 -32 -27 -36
-7 -4 -13 -13 -13 -18 0 -6 -6 -16 -12 -24 -17 -17 -69 -79 -161 -190 -238
-290 -575 -612 -939 -902 -68 -53 -130 -105 -138 -114 -21 -24 -331 -249 -480
-348 -69 -46 -134 -92 -145 -102 -11 -10 -50 -35 -87 -56 -37 -21 -127 -74
-200 -119 -73 -44 -173 -103 -223 -129 -49 -27 -92 -52 -95 -56 -3 -4 -151
-81 -330 -172 -325 -164 -325 -164 -349 -211 -21 -41 -23 -51 -13 -84 24 -78
85 -109 176 -91 68 14 123 35 301 114 83 37 176 78 209 92 32 14 120 57 195
96 75 38 172 89 216 112 146 75 442 254 632 382 242 163 471 325 519 369 22
20 69 56 107 81 37 25 70 50 75 57 4 7 54 52 112 101 275 229 522 475 773 767
64 75 122 140 127 143 6 4 8 11 5 16 -4 5 -1 9 5 9 6 0 14 10 19 23 5 12 33
51 62 87 89 109 324 490 334 540 2 12 18 47 36 78 53 94 148 342 163 423 2 14
15 75 28 135 20 96 23 135 22 324 0 188 -3 224 -22 289 -11 41 -19 79 -16 83
3 4 1 8 -4 8 -5 0 -12 15 -15 34 -10 65 -129 291 -159 304 -5 2 -8 10 -8 18 0
8 -7 17 -15 20 -8 4 -13 10 -10 14 3 4 -25 36 -62 71 -36 35 -84 81 -106 103
-100 96 -371 235 -548 281 -78 21 -299 54 -356 55 -24 0 -43 5 -43 10 0 6 -66
10 -179 10 -109 0 -182 -4 -186 -10z m7664 -6021 c1 -98 21 -148 86 -208 32
-30 62 -45 117 -61 40 -12 79 -23 86 -26 22 -7 13 -68 -34 -209 -63 -191 -85
-245 -178 -430 -44 -88 -79 -163 -78 -167 1 -5 -3 -8 -10 -8 -6 0 -9 -3 -5 -6
6 -6 -29 -83 -42 -94 -3 -3 -11 -14 -17 -25 -177 -324 -550 -889 -726 -1099
-32 -38 -58 -75 -58 -81 0 -7 -7 -15 -15 -19 -8 -3 -15 -12 -15 -21 0 -8 -4
-15 -8 -15 -5 0 -40 -39 -78 -87 -292 -371 -719 -819 -940 -988 -64 -50 -114
-70 -114 -46 0 16 51 185 65 216 8 16 28 65 45 108 16 43 42 100 55 128 14 27
22 49 18 49 -4 0 -2 5 5 12 7 7 12 18 12 25 0 16 221 465 304 618 33 61 80
151 106 200 26 50 77 144 115 210 38 66 77 138 88 160 11 22 22 42 26 45 3 3
15 23 27 45 12 22 48 85 81 140 33 55 90 154 128 220 37 66 71 122 75 125 4 3
33 50 65 105 85 149 176 296 202 328 13 16 21 33 17 38 -3 5 0 9 5 9 6 0 11 6
11 14 0 8 6 21 13 28 6 7 21 29 31 48 11 19 22 37 26 40 4 3 29 41 57 85 175
279 208 331 243 377 21 29 37 55 34 59 -2 4 3 14 11 22 8 9 15 20 15 26 0 6 5
11 10 11 6 0 10 6 10 14 0 8 4 16 8 18 5 2 23 26 42 53 30 46 70 95 76 95 1 0
3 -37 3 -81z m-10215 -1279 c-1 -168 -30 -290 -105 -448 -65 -135 -113 -205
-207 -304 -171 -179 -401 -309 -642 -364 -111 -25 -247 -32 -281 -14 -31 17
-23 42 44 134 34 48 67 94 72 102 6 9 53 61 105 116 52 55 98 106 102 112 9
17 382 365 503 471 55 47 112 99 126 115 15 15 51 46 80 68 30 22 81 66 113
97 87 82 91 78 90 -85z m15356 -314 c0 -8 -7 -21 -15 -30 -8 -8 -15 -19 -15
-24 0 -6 -3 -12 -7 -14 -5 -1 -56 -70 -115 -153 -133 -185 -273 -361 -381
-479 -122 -134 -401 -416 -410 -416 -5 0 -28 -16 -51 -35 -24 -19 -46 -35 -50
-35 -9 0 -8 38 2 42 11 5 92 125 92 136 0 6 4 12 9 14 4 2 62 71 128 153 66
83 180 217 254 300 177 198 528 555 545 555 8 0 14 -6 14 -14z"/>
<path d="M22768 14249 c-117 -18 -218 -140 -218 -264 0 -91 78 -203 155 -224
87 -24 180 -9 227 35 38 38 63 124 49 178 -5 23 -7 70 -5 106 4 54 2 71 -15
97 -37 59 -107 85 -193 72z"/>
<path d="M38143 8803 c-48 -6 -97 -72 -138 -185 -18 -51 -61 -156 -95 -233
-34 -77 -63 -147 -65 -155 -9 -45 -267 -548 -336 -655 -25 -38 -65 -104 -89
-145 -71 -123 -299 -453 -336 -485 -20 -18 -94 -122 -94 -133 0 -5 -4 -12 -9
-14 -5 -1 -61 -68 -125 -147 -270 -336 -540 -602 -866 -853 -76 -58 -156 -115
-323 -227 -73 -49 -400 -223 -477 -253 -94 -38 -311 -104 -410 -125 -60 -13
-127 -18 -230 -17 -157 0 -207 12 -293 72 -39 26 -96 99 -102 130 -2 9 -4 18
-5 20 -2 1 -4 7 -5 12 -1 6 -3 11 -5 13 -15 19 -20 241 -7 382 13 145 62 344
154 615 30 91 56 170 57 175 1 6 5 16 9 23 5 6 6 12 3 12 -3 0 23 84 59 188
77 226 132 415 140 480 11 90 14 356 4 368 -5 7 -9 16 -8 20 4 26 -6 49 -50
116 -108 161 -228 215 -456 205 -200 -10 -339 -50 -565 -162 -36 -18 -85 -42
-110 -54 -70 -35 -84 -42 -178 -100 -127 -79 -358 -234 -426 -286 -33 -25 -65
-45 -72 -45 -6 0 -17 -7 -24 -15 -7 -8 -85 -70 -174 -137 -223 -169 -440 -342
-506 -403 -30 -28 -67 -58 -81 -67 -14 -9 -64 -53 -112 -99 -48 -45 -97 -89
-110 -97 -12 -9 -56 -47 -97 -86 -42 -39 -118 -109 -170 -156 -52 -47 -195
-181 -317 -297 -203 -193 -253 -233 -253 -203 0 12 134 259 167 309 12 18 20
37 17 42 -3 5 0 9 6 9 6 0 8 5 5 10 -3 6 -2 10 2 10 5 0 15 16 22 35 7 19 18
40 25 47 7 7 61 103 121 213 59 110 120 218 135 240 15 22 57 97 94 167 37 70
82 153 101 185 59 99 133 255 150 318 14 49 15 68 6 102 -31 114 -162 155
-257 81 -37 -29 -54 -49 -111 -128 -26 -36 -50 -67 -54 -70 -8 -6 -79 -117
-79 -123 0 -3 -28 -51 -63 -108 -35 -57 -81 -135 -102 -174 -21 -38 -41 -72
-44 -75 -3 -3 -21 -34 -39 -69 -19 -34 -40 -70 -47 -79 -7 -10 -34 -42 -59
-72 -40 -49 -225 -329 -251 -380 -5 -11 -13 -20 -17 -20 -5 0 -8 -6 -8 -12 -1
-15 -38 -68 -154 -219 -369 -482 -831 -850 -1011 -805 -115 29 -159 240 -121
581 19 161 14 210 -23 283 -25 49 -56 77 -115 103 -49 21 -107 22 -175 3 -23
-7 -24 -6 -17 27 4 19 10 43 13 54 11 44 12 150 0 164 -7 8 -10 16 -8 18 10
12 -45 66 -92 90 -42 22 -65 27 -117 26 -132 -1 -260 -82 -610 -383 -339 -293
-566 -502 -805 -744 -82 -83 -184 -180 -225 -215 -41 -35 -86 -75 -100 -89
-14 -14 -48 -40 -76 -58 -28 -18 -64 -46 -80 -61 -16 -16 -132 -112 -257 -213
-126 -101 -321 -261 -433 -357 -113 -95 -209 -173 -214 -173 -14 0 -12 36 5
100 35 127 98 420 102 478 3 34 8 62 12 62 3 0 6 12 7 28 0 15 12 90 27 167
64 339 101 667 95 847 -4 125 -6 137 -36 199 -65 135 -163 185 -304 156 -108
-23 -179 -83 -392 -332 -396 -463 -799 -843 -1111 -1048 -96 -63 -119 -70
-139 -48 -18 19 -22 51 -6 51 5 0 7 6 4 14 -13 34 93 363 176 549 12 26 23 56
25 65 2 9 29 80 61 157 68 169 84 223 84 295 0 67 -25 124 -75 175 -48 47 -94
66 -159 66 -73 0 -152 -33 -227 -94 -36 -30 -70 -56 -77 -58 -24 -8 -216 -193
-798 -771 -226 -225 -398 -388 -408 -388 -14 0 -17 6 -13 23 80 363 125 703
111 836 -9 90 -37 160 -86 215 -59 68 -100 86 -199 86 -128 0 -141 -10 -584
-455 -390 -392 -515 -508 -773 -713 -278 -219 -326 -256 -356 -272 -17 -9 -60
-35 -96 -59 -83 -55 -243 -131 -274 -131 -54 0 -58 54 -15 215 23 91 125 329
205 483 64 122 70 173 30 259 -39 83 -141 129 -234 104 -40 -11 -73 -32 -247
-153 -45 -31 -135 -85 -200 -121 -114 -61 -419 -197 -442 -197 -6 0 -73 -18
-150 -40 -149 -43 -275 -65 -420 -76 l-92 -7 -33 35 c-18 20 -49 53 -69 75
-66 73 -182 109 -274 84 -76 -20 -130 -63 -164 -132 -55 -109 -38 -205 55
-309 57 -64 61 -79 43 -145 -19 -68 -124 -288 -160 -333 -10 -13 -16 -28 -13
-33 3 -5 0 -9 -5 -9 -6 0 -11 -7 -11 -15 0 -8 -3 -15 -8 -15 -4 0 -13 -12 -19
-27 -7 -16 -23 -40 -35 -54 -13 -15 -50 -64 -83 -110 -163 -226 -433 -498
-681 -686 -234 -176 -388 -265 -609 -348 -174 -65 -325 -60 -341 13 -3 15 -8
33 -10 40 -13 43 39 236 97 357 129 273 325 534 600 800 230 222 499 412 667
470 37 12 75 26 85 30 10 4 29 27 44 52 47 80 20 163 -67 212 -118 66 -321 23
-556 -118 -135 -82 -247 -163 -349 -253 -111 -99 -425 -420 -425 -435 0 -7 -5
-13 -10 -13 -6 0 -43 -44 -84 -99 -100 -135 -299 -461 -281 -461 3 0 -6 -23
-21 -52 -45 -89 -102 -278 -115 -384 -22 -180 10 -312 112 -447 33 -45 61 -68
122 -102 97 -55 159 -74 263 -82 139 -10 287 22 519 112 39 15 89 34 112 43
23 9 45 14 48 10 11 -11 -62 -174 -154 -341 -86 -158 -132 -234 -226 -367 -25
-36 -45 -70 -45 -77 0 -6 -4 -13 -8 -15 -5 -1 -44 -46 -88 -98 -151 -183 -279
-297 -477 -428 -149 -98 -226 -135 -397 -191 -289 -96 -548 -115 -774 -56
-174 46 -374 142 -468 227 -23 22 -61 52 -83 67 -22 16 -69 62 -104 102 -35
41 -74 83 -86 95 -45 42 -128 156 -289 399 -160 240 -236 350 -270 387 -9 10
-16 22 -16 26 0 18 -258 259 -322 302 -37 25 -68 50 -68 56 0 16 61 39 151 58
102 21 183 50 409 146 426 180 931 490 1270 779 94 80 440 431 440 446 0 7 6
15 13 18 20 7 166 199 261 342 47 72 90 135 95 141 11 13 35 57 37 67 1 4 2
11 3 16 0 5 7 16 14 23 13 15 26 39 123 231 36 70 67 138 70 152 2 14 15 49
28 78 65 144 161 485 170 602 3 33 10 118 15 189 7 86 8 174 1 264 -5 74 -7
138 -5 143 3 4 1 10 -4 14 -5 3 -10 22 -9 43 1 133 -176 561 -286 689 -22 27
-64 80 -93 118 -28 39 -77 90 -109 115 -31 25 -66 56 -78 70 -25 30 -99 91
-142 116 -16 11 -61 40 -100 65 -220 146 -632 305 -879 339 -249 34 -317 42
-463 50 -178 9 -422 -1 -605 -25 -62 -8 -152 -20 -202 -25 -171 -18 -628 -150
-882 -255 -143 -60 -457 -223 -560 -291 -52 -35 -98 -64 -101 -64 -8 0 -104
-67 -112 -78 -3 -4 -55 -47 -116 -95 -132 -103 -282 -241 -391 -358 -95 -103
-299 -359 -295 -371 1 -4 -2 -8 -8 -8 -5 0 -10 -7 -10 -15 0 -8 -4 -15 -10
-15 -5 0 -10 -5 -10 -11 0 -7 -15 -32 -33 -58 -60 -84 -104 -164 -182 -331
-80 -172 -154 -357 -159 -400 -2 -14 -5 -25 -6 -25 -1 0 -3 -7 -5 -15 -1 -8
-15 -68 -29 -132 -45 -201 -58 -305 -63 -524 -6 -249 9 -391 64 -604 19 -74
37 -145 39 -158 14 -68 100 -242 191 -382 70 -108 214 -252 318 -319 110 -71
251 -115 344 -109 140 10 228 100 199 204 -14 51 -41 72 -165 133 -131 64
-231 138 -299 223 -74 91 -133 187 -143 230 -1 4 -14 34 -28 65 -70 158 -123
434 -123 642 0 212 41 471 106 673 19 60 37 118 39 129 13 68 189 413 275 539
24 36 70 97 102 136 32 39 58 74 58 78 0 5 11 17 25 28 14 11 25 23 25 26 0
27 410 420 470 452 14 7 52 34 85 59 33 26 80 61 105 78 69 47 400 229 466
257 227 94 418 162 600 212 131 36 469 87 685 104 322 25 719 -20 1029 -117
175 -54 489 -212 557 -280 10 -10 45 -40 78 -67 82 -68 145 -128 145 -139 0
-8 67 -96 82 -107 15 -12 108 -176 127 -224 32 -85 34 -90 38 -113 2 -12 10
-40 18 -63 53 -152 58 -496 10 -715 -15 -66 -26 -128 -26 -137 0 -10 -5 -20
-10 -23 -5 -4 -7 -11 -4 -16 4 -5 3 -15 -1 -21 -5 -7 -9 -19 -10 -28 -3 -24
-72 -214 -101 -278 -92 -201 -158 -332 -206 -404 -30 -46 -76 -117 -102 -158
-115 -180 -334 -439 -510 -602 -177 -165 -533 -435 -667 -506 -29 -16 -84 -48
-123 -72 -158 -98 -590 -302 -720 -340 -33 -10 -134 -40 -225 -68 -165 -50
-273 -69 -595 -107 -163 -19 -472 -37 -496 -30 -33 11 -26 42 41 189 12 27 24
60 26 74 3 14 14 43 25 66 11 23 35 77 53 121 19 44 48 110 65 147 43 95 62
141 66 160 2 9 29 76 60 150 31 73 75 178 97 233 23 55 57 138 76 185 19 47
53 128 74 180 21 52 45 109 52 125 27 58 46 108 50 129 2 11 30 84 61 161 31
77 74 190 96 250 33 94 37 116 29 149 -18 82 -82 130 -163 123 -91 -8 -154
-93 -305 -411 -101 -214 -129 -276 -214 -476 -22 -52 -44 -99 -48 -105 -4 -5
-28 -57 -52 -115 -25 -58 -59 -136 -76 -175 -37 -86 -133 -298 -173 -383 -16
-34 -29 -66 -29 -70 0 -10 -119 -283 -129 -297 -8 -11 -66 -147 -66 -155 0 -3
-18 -47 -39 -99 -26 -61 -47 -96 -61 -103 -24 -11 -332 40 -570 94 -71 16
-180 40 -241 53 -129 27 -178 40 -254 65 -30 10 -161 53 -290 95 -237 77 -409
144 -552 216 -86 43 -147 51 -198 24 -62 -32 -80 -129 -35 -183 22 -26 326
-186 480 -252 28 -12 118 -51 200 -87 83 -36 227 -93 320 -125 342 -119 481
-166 535 -178 59 -13 341 -84 403 -101 45 -12 46 -25 13 -100 -77 -175 -128
-293 -131 -308 -4 -18 -84 -210 -120 -286 -33 -72 -76 -176 -80 -194 -3 -18
-65 -170 -100 -246 -57 -124 -109 -251 -107 -257 1 -4 -13 -40 -32 -80 -19
-40 -50 -111 -69 -158 -20 -47 -51 -119 -70 -160 -19 -41 -35 -79 -37 -85 -8
-32 -109 -276 -120 -290 -19 -25 -80 -206 -88 -260 -11 -71 -10 -125 1 -125 5
0 5 -4 2 -10 -3 -5 16 -32 42 -59 55 -56 110 -77 180 -66 64 9 152 80 191 152
17 32 31 61 31 66 1 4 1 8 2 10 0 1 2 9 4 17 4 20 70 184 139 345 31 71 56
133 56 138 0 7 120 292 165 392 27 60 47 110 50 126 4 19 87 222 124 304 15
33 40 94 56 135 15 41 37 100 48 130 11 30 34 84 50 120 16 36 43 99 59 140
16 41 33 80 37 85 9 12 42 93 46 115 6 32 98 246 110 259 19 19 482 -1 651
-29 196 -32 381 -99 508 -183 125 -84 271 -258 426 -506 41 -66 78 -121 83
-121 4 0 7 -7 7 -15 0 -8 5 -15 10 -15 6 0 10 -7 10 -15 0 -8 5 -15 11 -15 5
0 8 -4 5 -8 -5 -8 38 -80 54 -92 4 -3 42 -54 85 -115 193 -269 401 -472 620
-605 22 -13 42 -27 45 -31 19 -25 250 -120 395 -162 323 -93 661 -79 1045 44
229 74 460 193 657 340 121 90 368 336 448 447 76 105 206 310 210 332 2 10
24 57 49 106 49 97 146 342 151 383 1 14 4 26 5 26 1 0 3 8 5 17 2 9 17 70 34
135 17 65 42 177 56 248 14 72 28 140 30 152 3 14 46 53 108 100 324 245 636
578 845 898 88 136 118 183 144 225 27 44 114 251 149 354 24 71 39 100 54
106 11 4 65 10 120 13 118 7 278 35 442 77 163 42 225 63 396 137 82 34 153
63 158 63 14 0 11 -51 -7 -127 -9 -37 -16 -113 -16 -168 -2 -218 76 -365 232
-439 61 -29 72 -31 175 -31 130 1 197 21 390 116 140 69 182 96 382 241 331
240 574 450 928 800 137 137 253 248 258 248 4 0 10 -6 13 -14 9 -22 -42 -282
-102 -521 -30 -121 -57 -237 -59 -257 -6 -47 -93 -334 -113 -373 -17 -34 -158
-207 -224 -275 -52 -55 -395 -466 -538 -645 -56 -71 -120 -150 -142 -174 -21
-24 -38 -48 -38 -53 0 -5 -26 -41 -58 -80 -101 -125 -151 -193 -152 -205 0 -6
-4 -13 -8 -15 -12 -4 -129 -165 -237 -323 -48 -71 -93 -134 -99 -140 -23 -20
-55 -72 -49 -79 3 -3 1 -6 -5 -6 -7 0 -12 -7 -12 -15 0 -8 -4 -15 -10 -15 -5
0 -10 -7 -10 -15 0 -8 -4 -15 -10 -15 -5 0 -10 -6 -10 -14 0 -8 -4 -16 -9 -18
-10 -4 -81 -113 -169 -263 -36 -60 -84 -140 -108 -176 -47 -73 -286 -540 -280
-547 3 -2 -7 -33 -20 -69 -80 -212 -101 -420 -55 -536 46 -116 133 -193 248
-218 143 -32 369 67 543 237 132 130 199 200 200 209 0 6 17 26 38 46 93 88
426 571 569 829 42 74 98 173 125 219 28 47 51 92 53 100 2 9 47 99 100 201
53 102 98 193 100 203 2 9 24 59 48 110 77 160 158 339 162 356 2 9 17 48 33
86 100 236 134 322 167 420 20 61 43 124 51 140 20 44 143 390 148 419 10 53
64 132 149 217 48 48 87 92 87 97 0 6 42 49 93 97 50 48 90 89 89 92 -2 3 53
60 122 127 69 67 126 125 126 130 0 11 680 686 691 686 16 0 10 -48 -15 -112
-12 -35 -35 -108 -49 -163 -63 -240 -53 -404 33 -532 53 -79 82 -108 144 -138
134 -65 292 -51 464 43 167 90 407 270 600 450 146 137 402 389 402 397 0 4
27 35 60 67 77 77 170 183 170 194 0 14 40 35 52 28 7 -4 8 -29 4 -70 -9 -87
-71 -455 -101 -597 -14 -64 -25 -130 -25 -147 0 -16 -4 -31 -10 -35 -5 -3 -7
-12 -4 -20 3 -8 2 -20 -2 -27 -4 -7 -9 -24 -10 -38 -8 -67 -64 -293 -141 -565
-25 -88 -47 -167 -48 -175 -2 -8 -4 -15 -5 -15 -1 0 -3 -9 -4 -20 -4 -32 -47
-167 -61 -196 -8 -14 -177 -189 -377 -390 -200 -200 -395 -403 -435 -449 -39
-47 -94 -107 -122 -135 -28 -27 -51 -53 -51 -57 0 -9 -35 -51 -89 -108 -46
-49 -141 -166 -141 -175 0 -4 -9 -14 -19 -23 -17 -15 -141 -182 -301 -406 -30
-42 -54 -81 -53 -86 2 -6 -2 -10 -7 -10 -6 0 -10 -6 -10 -14 0 -8 -3 -16 -7
-18 -5 -2 -17 -21 -28 -42 -11 -22 -25 -45 -32 -52 -48 -48 -201 -395 -228
-519 -35 -157 -8 -304 74 -398 44 -50 144 -97 217 -104 194 -17 477 153 739
444 44 48 96 105 117 127 21 21 38 42 38 47 0 9 3 13 74 99 60 74 177 249 262
392 167 283 218 375 314 573 94 195 120 252 188 425 14 36 29 70 33 75 10 15
139 345 144 369 2 12 4 21 5 21 1 0 3 10 6 23 13 71 57 133 172 240 219 204
566 508 836 731 161 132 198 152 211 112 8 -27 85 -96 136 -121 174 -89 463
-1 862 264 193 128 371 262 510 384 125 110 381 351 386 363 7 21 49 59 64 59
16 0 25 -24 42 -110 4 -19 16 -54 26 -78 10 -24 21 -54 23 -67 6 -33 22 -61
73 -128 68 -88 147 -149 239 -183 72 -27 89 -29 204 -28 113 0 134 3 220 32
145 49 333 169 527 337 62 52 117 95 123 95 7 0 32 -22 56 -49 49 -55 120 -90
198 -98 121 -12 339 103 521 276 33 32 110 105 170 162 180 172 334 317 635
596 215 199 764 654 937 774 36 26 77 57 92 71 50 46 478 338 495 338 4 0 52
27 107 60 167 102 358 178 499 201 149 24 177 -39 119 -272 -10 -42 -21 -93
-25 -114 -5 -35 -114 -356 -178 -527 -14 -37 -28 -79 -30 -92 -2 -13 -25 -89
-50 -167 -62 -198 -90 -302 -122 -454 -26 -120 -28 -148 -29 -355 0 -262 6
-294 86 -460 45 -91 63 -116 138 -190 90 -89 149 -125 291 -175 117 -42 176
-50 350 -49 183 1 327 25 510 84 52 16 101 30 107 30 43 0 524 228 623 295 30
21 98 64 150 97 124 79 324 228 479 358 116 98 431 396 431 409 0 4 27 35 60
70 131 137 540 676 532 702 -1 5 2 9 7 9 5 0 12 11 15 25 4 14 11 25 16 25 6
0 10 6 10 14 0 8 6 21 13 28 17 17 119 195 177 308 23 47 51 97 61 111 20 28
87 168 134 279 16 36 41 94 57 129 39 83 118 272 123 291 2 8 4 15 5 15 1 0 3
9 5 20 1 11 15 52 30 90 15 39 42 115 60 170 114 352 111 340 98 418 -4 29
-14 44 -42 63 -19 13 -40 23 -46 22 -5 0 -25 -3 -42 -5z m-9423 -2851 c0 -13
-105 -140 -220 -268 -194 -213 -462 -450 -720 -633 -74 -52 -143 -102 -153
-111 -26 -22 -239 -140 -254 -140 -70 0 182 268 437 464 85 66 158 125 163
132 4 7 35 31 70 54 34 23 85 61 112 85 98 84 540 425 553 425 6 0 12 -3 12
-8z m-6990 -2902 c0 -5 -11 -33 -23 -62 -13 -29 -25 -57 -27 -63 -12 -44 -113
-263 -162 -352 -21 -39 -41 -80 -43 -91 -2 -11 -39 -86 -82 -166 -43 -80 -93
-174 -111 -208 -45 -86 -147 -261 -191 -327 -19 -30 -36 -62 -38 -70 -1 -9 -7
-17 -12 -19 -6 -2 -11 -8 -11 -14 0 -9 -57 -98 -70 -108 -3 -3 -37 -50 -75
-105 -107 -157 -284 -371 -388 -472 -133 -129 -153 -124 -97 26 16 44 40 102
54 129 14 27 22 52 19 56 -4 3 -1 6 6 6 7 0 9 4 6 10 -6 9 140 282 177 329 10
13 15 27 12 32 -3 5 0 9 5 9 6 0 11 6 11 14 0 8 6 21 14 28 7 8 16 23 20 34 3
11 14 29 24 40 10 10 46 66 82 124 84 139 195 305 237 356 18 22 30 44 26 47
-3 4 -1 7 5 7 7 0 12 7 12 15 0 8 5 15 10 15 6 0 10 5 10 10 0 10 7 20 36 53
6 7 54 75 108 152 127 181 342 467 397 528 42 46 59 57 59 37z m3170 -401 c0
-16 -151 -315 -199 -396 -158 -262 -303 -477 -402 -598 -67 -81 -269 -287
-321 -327 -36 -28 -68 -36 -68 -18 0 17 119 248 169 329 26 42 66 100 89 130
22 30 39 58 36 63 -3 4 0 8 5 8 6 0 11 6 11 14 0 8 7 16 15 20 8 3 15 12 15
20 0 8 4 16 8 18 5 2 50 59 102 128 183 245 502 620 526 620 8 0 14 -5 14 -11z"/>
<path d="M5990 7175 c-8 -2 -49 -8 -90 -14 -84 -13 -160 -31 -175 -41 -5 -4
-32 -15 -60 -25 -61 -22 -185 -83 -205 -100 -8 -8 -40 -26 -70 -41 -64 -32
-185 -127 -288 -228 -73 -70 -202 -218 -202 -230 0 -4 -5 -12 -10 -19 -27 -31
-104 -160 -139 -232 -44 -93 -113 -305 -135 -420 -19 -96 -35 -254 -36 -350 0
-49 -5 -78 -18 -97 -9 -15 -91 -95 -182 -179 -370 -341 -891 -879 -1197 -1234
-66 -77 -128 -147 -137 -154 -9 -7 -16 -17 -16 -22 0 -10 -10 -23 -95 -123
-86 -101 -125 -152 -125 -164 0 -5 -7 -12 -15 -16 -8 -3 -15 -12 -15 -20 0 -8
-4 -16 -10 -18 -20 -6 -365 -516 -361 -532 2 -8 -30 -70 -39 -76 -15 -10 -148
-293 -155 -329 -2 -9 -4 -16 -5 -16 -1 0 -3 -7 -5 -15 -2 -8 -15 -60 -30 -115
-14 -55 -29 -128 -32 -163 -3 -34 -10 -62 -14 -62 -5 0 -9 -25 -9 -55 0 -30 5
-55 10 -55 6 0 10 -19 10 -42 0 -50 55 -216 92 -279 90 -153 277 -272 508
-322 78 -18 128 -21 285 -21 256 1 450 34 780 135 72 21 155 46 185 55 58 17
388 150 405 164 6 4 28 13 50 20 97 30 628 314 851 454 236 148 648 438 734
516 30 27 66 55 80 62 14 7 43 27 66 45 23 18 48 33 56 33 8 0 41 -17 74 -39
243 -159 322 -205 522 -305 174 -85 268 -125 402 -169 463 -150 866 -192 1177
-121 169 38 237 166 146 274 -55 66 -128 84 -390 100 -320 19 -636 96 -977
236 -76 32 -400 207 -492 267 -110 71 -109 68 -33 140 530 501 770 755 1018
1077 52 69 105 136 118 149 12 13 30 40 40 60 10 20 21 38 26 39 4 2 7 10 7
18 0 8 5 14 10 14 6 0 10 6 10 14 0 8 4 16 9 18 8 3 141 202 141 212 0 7 123
210 131 216 4 3 53 93 109 200 57 107 108 202 115 210 15 19 63 103 64 113 1
4 1 8 2 10 7 28 7 78 -1 108 -15 55 -60 89 -119 89 -73 0 -104 -27 -183 -159
-37 -63 -72 -117 -76 -120 -14 -10 -92 -129 -92 -140 0 -6 -4 -11 -10 -11 -5
0 -10 -5 -10 -11 0 -7 -6 -17 -13 -23 -7 -6 -51 -63 -97 -126 -116 -158 -320
-410 -407 -501 -40 -42 -73 -79 -73 -82 0 -8 -56 -71 -137 -156 -40 -42 -73
-79 -73 -83 0 -9 -220 -235 -410 -421 -85 -84 -184 -181 -220 -217 -36 -36
-81 -77 -101 -92 -20 -15 -72 -61 -115 -103 -43 -41 -87 -75 -97 -75 -38 0
-341 298 -497 489 -47 58 -95 115 -107 128 -13 13 -23 28 -23 34 0 5 -7 12
-15 15 -8 4 -15 12 -15 19 0 7 -23 43 -52 81 -72 96 -127 184 -183 289 -26 50
-65 122 -85 160 -36 65 -98 211 -105 245 -2 8 -4 15 -5 15 -1 0 -3 7 -5 15 -1
8 -15 53 -30 100 -15 47 -29 111 -32 143 l-6 59 104 100 c57 55 123 113 147
129 23 17 42 33 42 38 0 4 87 86 193 182 245 221 611 586 712 709 43 52 81 97
84 100 12 9 53 70 47 70 -3 0 14 39 37 88 39 81 42 93 42 172 0 73 -4 93 -28
143 -16 31 -33 57 -38 57 -5 0 -9 6 -9 14 0 15 -47 54 -95 79 -63 32 -242 56
-315 42z m-12 -449 c-6 -29 -106 -140 -267 -299 -90 -89 -196 -195 -236 -234
-39 -40 -76 -73 -81 -73 -5 0 -43 -34 -84 -76 -92 -93 -200 -178 -212 -166 -5
5 0 34 12 68 12 32 22 64 24 69 1 6 16 40 33 77 39 84 104 180 160 238 24 25
43 49 43 55 0 12 122 125 135 125 6 0 28 16 50 36 97 87 308 188 403 193 16 1
22 -4 20 -13z m-1288 -1871 c7 -8 10 -15 6 -15 -6 0 37 -123 67 -190 74 -164
180 -376 205 -412 16 -24 67 -101 112 -173 92 -144 254 -364 325 -440 25 -28
57 -64 69 -80 28 -36 273 -284 334 -338 25 -22 42 -45 40 -55 -2 -9 -30 -38
-63 -65 -92 -74 -330 -247 -401 -292 -35 -22 -72 -47 -83 -56 -36 -32 -167
-116 -306 -199 -77 -46 -142 -86 -145 -90 -3 -4 -30 -19 -60 -35 -30 -15 -62
-32 -70 -36 -83 -45 -366 -189 -405 -205 -27 -12 -122 -53 -210 -91 -165 -72
-210 -88 -406 -147 -374 -114 -666 -151 -872 -112 -85 17 -121 33 -172 78 -65
56 -78 96 -73 217 4 89 10 122 42 211 20 58 39 116 42 129 6 27 122 243 170
317 19 28 34 56 34 63 0 6 5 11 10 11 6 0 10 6 10 13 0 14 16 37 167 246 141
195 320 423 392 501 34 36 61 70 61 75 0 6 47 60 105 120 58 61 105 114 105
118 0 5 53 62 118 128 64 65 121 127 126 137 18 32 683 682 698 682 9 0 21 -7
28 -15z"/>
</g>
</svg>
